<?xml version="1.0" standalone="no"?><!DOCTYPE svg PUBLIC "-//W3C//DTD SVG 1.1//EN" "http://www.w3.org/Graphics/SVG/1.1/DTD/svg11.dtd"><svg t="1741683640072" class="icon" viewBox="0 0 1024 1024" version="1.1" xmlns="http://www.w3.org/2000/svg" p-id="18514" xmlns:xlink="http://www.w3.org/1999/xlink" width="200" height="200"><path d="M529.365333 423.808H247.125333a35.242667 35.242667 0 1 0 0 70.613333h282.24a35.242667 35.242667 0 1 0 0-70.613333z m141.056-211.626667H247.125333a35.242667 35.242667 0 1 0 0 70.570667h423.296a35.242667 35.242667 0 1 0 0-70.613333zM811.605333 0.469333H141.312A141.098667 141.098667 0 0 0 0.341333 141.568v705.578667a141.098667 141.098667 0 0 0 141.056 141.056H388.266667v-70.613334H176.512a105.813333 105.813333 0 0 1-105.813333-105.856V176.853333a105.813333 105.813333 0 0 1 105.813333-105.856h599.808a105.813333 105.813333 0 0 1 105.856 105.813334v141.098666h70.485333V141.525333A141.098667 141.098667 0 0 0 811.605333 0.512zM388.266667 635.477333H247.125333a35.242667 35.242667 0 1 0 0 70.570667h141.056a35.285333 35.285333 0 0 0 0.128-70.570667z" fill="#2c2c2c" p-id="18515"></path><path d="M522.965333 986.453333c-23.637333 0-46.037333-7.168-62.592-20.650666a78.464 78.464 0 0 1-29.013333-60.672c-0.810667-42.154667 34.133333-148.138667 41.216-168.96l2.304-6.826667 4.906667-5.248c29.013333-31.402667 284.16-307.626667 306.005333-328.106667 29.098667-27.306667 72.405333-40.234667 105.301333-31.317333 16.554667 4.437333 42.026667 18.048 63.146667 33.792 21.248 15.786667 49.066667 41.472 61.269333 74.666667 9.472 25.856 9.941333 55.210667 1.450667 85.034666a162.56 162.56 0 0 1-15.658667 37.418667l-1.706666 2.858667-2.304 2.517333c-69.205333 75.093333-296.234667 320.853333-312.746667 334.890667-7.637333 6.656-22.229333 15.872-67.370667 29.952-24.32 7.552-52.736 14.848-72.405333 18.517333-7.296 1.450667-14.592 2.133333-21.802667 2.133333z m11.52-221.824c-15.658667 47.317333-35.712 117.674667-35.413333 139.008 0.128 5.504 1.962667 7.68 4.010667 9.258667 5.973333 4.778667 17.92 6.741333 29.141333 4.693333 37.248-7.082667 96.384-25.258667 108.245333-33.365333 17.365333-16.426667 189.653333-202.154667 304.085334-326.186667 4.224-8.362667 16.426667-36.266667 7.210666-61.696-11.690667-31.744-64-62.378667-78.378666-66.389333-6.954667-1.792-26.624 1.621333-41.216 15.36-14.976 14.165333-184.234667 196.693333-297.685334 319.317333z" fill="#2c2c2c" p-id="18516"></path><path d="M800.853333 477.269333l140.586667 130.986667-38.954667 41.472-140.586666-130.986667z" fill="#2c2c2c" p-id="18517"></path></svg>