<?xml version="1.0" standalone="no"?><!DOCTYPE svg PUBLIC "-//W3C//DTD SVG 1.1//EN" "http://www.w3.org/Graphics/SVG/1.1/DTD/svg11.dtd"><svg t="1741682349873" class="icon" viewBox="0 0 1024 1024" version="1.1" xmlns="http://www.w3.org/2000/svg" p-id="12302" xmlns:xlink="http://www.w3.org/1999/xlink" width="200" height="200"><path d="M883.5 845.8H140.3c-21.1 0-38.1 17.1-38.1 38.1 0 21.1 17.1 38.1 38.1 38.1h743.2c21.1 0 38.1-17.1 38.1-38.1s-17.1-38.1-38.1-38.1z m-576.8-77.4c27.9 0 50.5-22.6 50.5-50.5V346.3c0-27.9-22.6-50.5-50.5-50.5s-50.5 22.6-50.5 50.5v371.6c0.1 27.9 22.7 50.5 50.5 50.5z m205-3.4c29 0 52.5-23.5 52.5-52.5V253.1c0-29-23.5-52.5-52.5-52.5s-52.5 23.5-52.5 52.5v459.4c0 29 23.5 52.5 52.5 52.5z m203.4 0c28.1 0 50.9-22.8 50.9-50.9V153c0-28.1-22.8-50.9-50.9-50.9-28.1 0-50.9 22.8-50.9 50.9v561.2c0.1 28 22.8 50.8 50.9 50.8z m0 0" fill="#2c2c2c" p-id="12303"></path></svg>