<svg t="1742476420472" class="icon" viewBox="0 0 1024 1024" version="1.1" xmlns="http://www.w3.org/2000/svg" p-id="2710" width="200" height="200"><path d="M416.904417 639.999787H258.423403v63.999978h158.481014v127.999958h63.385579v-127.999958h158.481014V639.999787h-158.481014v-63.999979h-63.385579v63.999979zM493.431325 511.999829l167.765277-169.369543-44.817051-45.260785-167.765278 169.369543-167.765277-169.369543-44.817052 45.260785L403.797221 511.999829H258.38927v63.999979h380.347607V511.999829h-145.339685zM132.266645 127.999957h632.695256c35.327988 0 63.999979 28.67199 63.999979 63.999979v767.999744c0 35.362122-28.67199 63.999979-63.999979 63.999979H132.266645A63.999979 63.999979 0 0 1 68.266667 959.99968v-767.999744C68.266667 156.637814 96.938657 127.999957 132.266645 127.999957zM131.652246 0h760.080813C927.09518 0 955.733038 28.67199 955.733038 63.999979v895.999701h-63.385579V127.999957c0-35.362122-28.67199-63.999979-63.999979-63.999978H131.686379V0z" fill="#2c2c2c" p-id="2711"></path></svg>