<?xml version="1.0" standalone="no"?><!DOCTYPE svg PUBLIC "-//W3C//DTD SVG 1.1//EN" "http://www.w3.org/Graphics/SVG/1.1/DTD/svg11.dtd"><svg t="1741683786905" class="icon" viewBox="0 0 1024 1024" version="1.1" xmlns="http://www.w3.org/2000/svg" p-id="26070" xmlns:xlink="http://www.w3.org/1999/xlink" width="200" height="200"><path d="M919.152383 1024.309223H104.904419c-16.090509 0-47.930384-28.030462-47.930384-82.385678V200.566154c0-54.355216 31.839876-82.328821 47.930384-82.328822h179.611013v90.573075H148.001965v724.868884H876.054837V208.810407h-136.513467V118.237332h179.611013c16.090509 0 47.930384 27.973605 47.930384 82.328822v741.357391c0 54.355216-31.839876 82.385678-47.930384 82.385678z m-359.051455-355.526326l191.607823-205.424055 66.693168 61.576045-255.173861 273.65236-158.119096-154.025398-126.336079 121.67381-63.281753-65.101174 189.958973-183.022428 154.650825 150.67084zM330.000969 152.180914c0-24.334762 18.876498-48.783238 45.485537-45.258109h87.389087V38.353359c0-21.093918 17.227647-38.207851 38.435279-38.207851h26.040469c21.207631 0 38.435278 17.113933 38.435279 38.207851v68.569446h82.72682c26.665896-3.525129 45.542394 20.923347 45.542393 45.258109v56.629493H330.000969v-56.629493z" p-id="26071" fill="#2c2c2c"></path></svg>