<?xml version="1.0" standalone="no"?><!DOCTYPE svg PUBLIC "-//W3C//DTD SVG 1.1//EN" "http://www.w3.org/Graphics/SVG/1.1/DTD/svg11.dtd"><svg t="1741683700933" class="icon" viewBox="0 0 1036 1024" version="1.1" xmlns="http://www.w3.org/2000/svg" p-id="20884" xmlns:xlink="http://www.w3.org/1999/xlink" width="202.34375" height="200"><path d="M458.732173 575.022651a11.66287 11.66287 0 0 0 0.608802-0.314897l94.469248-52.379116A11.66287 11.66287 0 0 0 559.817768 512.128292v-106.626625a11.641877 11.641877 0 0 0-0.690442-3.961877 11.650041 11.650041 0 0 0-5.929403-9.065549l-97.436283-54.339644a11.66287 11.66287 0 0 0-11.198688-0.089804l-94.945093 50.984237a11.66287 11.66287 0 0 0-2.22411 1.552328A11.665203 11.665203 0 0 0 340.555809 401.202733v111.246288a11.66287 11.66287 0 0 0 5.983052 10.185184l97.968109 54.637048a11.66287 11.66287 0 0 0 14.225203-2.248602z m-54.010752-163.268519l-20.819389-12.01159 66.051499-35.469121 18.825038 10.498916-64.055981 36.982961z m26.836265 15.48246l64.509667-37.245376 22.694779 12.656547-66.078323 36.777695-21.12729-12.188866z m86.581649 596.719089C231.979153 1023.955681 0 794.735964 0 511.977841 0 229.219718 231.979153 0 518.139335 0s518.138169 229.219718 518.138168 511.977841c0 282.758123-231.977986 511.977841-518.138168 511.97784z m-63.563809-361.350706c-112.07785 0-202.933941-90.857257-202.933941-202.933941 0-112.07785 90.856091-202.933941 202.933941-202.933941s202.933941 90.856091 202.933941 202.933941c0 112.076683-90.856091 202.933941-202.933941 202.933941z m0 25.658314c126.248237 0 228.592255-102.344018 228.592255-228.592255s-102.344018-228.592255-228.592255-228.592255-228.592255 102.344018-228.592255 228.592255 102.344018 228.592255 228.592255 228.592255z m176.71231-25.669977l29.975909-31.041895 103.611772 100.055763c8.57221 8.278305 8.810132 21.937859 0.531827 30.510068-8.277139 8.57221-21.936692 8.810132-30.508902 0.531827l-103.610606-100.055763z m46.121986-51.11836c-9.26615-8.94892-24.033677-8.691171-32.982596 0.57498l-33.215855 34.397303c-8.950087 9.267317-8.692337 24.033677 0.57498 32.982596l105.288893 101.676902c18.765558 18.121768 48.669157 17.599271 66.789758-1.166287 18.121768-18.765558 17.599271-48.667991-1.166287-66.789758l-105.288893-101.676902zM366.214123 504.22903v-79.594424l69.977221 37.679235v80.940318l-69.977221-39.023963z m167.94533-0.342889l-66.47836 36.859335v-76.347481l66.47836-35.543763v75.031909z" fill="#2c2c2c" p-id="20885"></path><path d="M629.448601 602.970387l26.846761 25.926561-29.977075 31.040729L599.471526 634.011116z" fill="#2c2c2c" p-id="20886"></path></svg>