<svg t="1742476887931" class="icon" viewBox="0 0 1024 1024" version="1.1" xmlns="http://www.w3.org/2000/svg" p-id="7125" width="200" height="200"><path d="M890.08 251.488l-180.192-180.256a20.16 20.16 0 0 0-14.272-5.888H227.52A99.84 99.84 0 0 0 128 164.864V860.48A99.84 99.84 0 0 0 227.52 960h568.896A99.84 99.84 0 0 0 896 860.448V265.728a20.16 20.16 0 0 0-5.888-14.24zM831.968 283.84V288h-149.984a10.016 10.016 0 0 1-10.016-10.016V129.376h5.504zM796.48 896H227.52A36.032 36.032 0 0 1 192 860.48V164.864a36.032 36.032 0 0 1 35.52-35.552H608v148.672A74.08 74.08 0 0 0 681.952 352h149.984v508.448A36.032 36.032 0 0 1 796.48 896z" fill="#2c2c2c" p-id="7126"></path><path d="M736 480H288a32 32 0 0 0 0 64h448a32 32 0 1 0 0-64zM288 352h192a32 32 0 1 0 0-64H288a32 32 0 0 0 0 64zM736 672H288a32 32 0 0 0 0 64h448a32 32 0 1 0 0-64z" fill="#2c2c2c" p-id="7127"></path></svg>