<svg t="1741836775823" class="icon" viewBox="0 0 1024 1024" version="1.1" xmlns="http://www.w3.org/2000/svg" p-id="1560" width="200" height="200"><path d="M654.821053 538.947368s115.873684-161.684211 115.873684-164.378947c2.694737-2.694737 5.389474-5.389474 2.694737-8.08421-2.694737-2.694737 0-16.168421 0-16.168422 21.557895-37.726316 51.2-61.978947 56.589473-61.978947l16.168421-8.08421c16.168421-24.252632 70.063158-86.231579 75.452632-97.010527 21.557895-48.505263-8.084211-88.926316-8.084211-88.926316-21.557895 16.168421-94.315789 113.178947-102.4 129.347369-8.084211 16.168421-51.2 75.452632-51.2 75.452631l-21.557894 26.947369 2.694737 10.778947c-2.694737 2.694737-29.642105 13.473684-32.336843 16.168421-2.694737 0-8.084211 8.084211-8.08421 8.084211l-113.178947 145.515789-115.873685-97.010526 67.368421-80.842105-129.347368-107.789474 129.347368 107.789474 21.557895 18.863158 10.778948-13.473685-245.221053-204.8-10.778947 13.473685 21.557894 18.863158-210.189473 250.610526 105.094736 88.926316-129.347368-107.789474-8.084211 10.778947 245.221053 204.8 10.778947-13.473684-21.557894-18.863158 67.368421-80.842105 121.263158 97.010526-51.2 67.368421c-10.778947 18.863158-134.736842 167.073684-142.821053 183.242106-21.557895 40.421053-13.473684 64.673684-10.778947 78.147368 2.694737 10.778947 26.947368 10.778947 48.505263 2.694737 21.557895-5.389474 53.894737-51.2 53.894737-51.2l110.48421-158.989474 51.2-72.757895 274.863158 223.663158 72.757895-78.147368-282.947369-237.136842 13.473685-10.778948z" fill="#2c2c2c" p-id="1561"></path></svg>