<svg t="1740978351561" class="icon" viewBox="0 0 1024 1024" version="1.1" xmlns="http://www.w3.org/2000/svg" p-id="2723" width="200" height="200"><path d="M151.776 831.424h5.088a360.928 360.928 0 0 0 256.32-106.432l10.176-10.176a124.704 124.704 0 0 0 2.56-176.32l-2.368-2.368-0.576-0.256a58.56 58.56 0 0 0-16.16-4.352l-1.952-0.256-1.664-0.032a21.728 21.728 0 0 0-16.224 7.264L134.88 790.4a24.128 24.128 0 0 0 16.896 40.992z m251.456-236.8a73.632 73.632 0 0 1-16.032 83.968l-10.24 10.208a310.016 310.016 0 0 1-151.872 83.872zM934.72 174.4l-30.464-50.88a65.6 65.6 0 0 0-49.152-27.328l-2.432-0.16-1.6-0.032a58.56 58.56 0 0 0-41.536 17.44L468.448 454.4a61.76 61.76 0 0 0 0 84.704 58.592 58.592 0 0 0 41.44 17.44h0.768a75.008 75.008 0 0 0 37.44-12.416l371.648-290.016a61.888 61.888 0 0 0 14.976-79.744z m-46.464 39.36l-369.728 288.48a24.864 24.864 0 0 1-9.44 3.04 7.2 7.2 0 0 1-3.424-1.28 10.4 10.4 0 0 1-0.992-13.408L846.08 149.312a7.424 7.424 0 0 1 4.608-2.112l1.344 0.096a14.624 14.624 0 0 1 9.696 4.896l28.864 48.16a10.56 10.56 0 0 1-2.336 13.376zM310.784 873.6h-41.6a27.2 27.2 0 1 0 0 54.4h41.6a27.2 27.2 0 0 0 0-54.4zM164.8 873.6H122.752a27.2 27.2 0 0 0 0 54.4H164.8a27.2 27.2 0 1 0 0-54.4zM456.992 873.6h-41.6a27.2 27.2 0 1 0 0 54.4h41.6a27.2 27.2 0 1 0 0-54.4zM603.2 873.6h-41.6a27.2 27.2 0 0 0 0 54.4h41.6a27.2 27.2 0 0 0 0-54.4zM892.8 873.6h-185.6a27.2 27.2 0 1 0 0 54.4h185.6a27.2 27.2 0 0 0 0-54.4z" fill="#2c2c2c" p-id="2724"></path></svg>