<svg t="1742476646349" class="icon" viewBox="0 0 1024 1024" version="1.1" xmlns="http://www.w3.org/2000/svg" p-id="3831" width="200" height="200"><path d="M146.285714 179.2h153.6v-102.4h-204.8A51.2 51.2 0 0 0 43.885714 128V972.8C43.885714 1001.0624 66.823314 1024 95.085714 1024h819.2a51.2 51.2 0 0 0 51.2-51.2V128a51.2 51.2 0 0 0-51.2-51.2h-204.8v102.4H863.085714V921.6H146.285714V179.2z" fill="#2c2c2c" p-id="3832"></path><path d="M248.685714 51.2C248.685714 22.9376 271.623314 0 299.885714 0h409.6c28.2624 0 51.2 22.9376 51.2 51.2V204.8a51.2 51.2 0 0 1-51.2 51.2h-409.6A51.2 51.2 0 0 1 248.685714 204.8V51.2z m102.4 51.2v51.2H658.285714V102.4H351.085714z" fill="#2c2c2c" p-id="3833"></path><path d="M398.336 672.914286v-44.2368h-95.670857v-29.842286h78.204343v-44.207543H302.6944v-26.741028h92.5696v-44.2368H239.908571V672.914286h158.398172z m89.4976 0v-65.828572h18.519771c25.365943-2.048 36.688457 8.923429 33.938286 32.914286 0 17.846857 1.024 28.789029 3.072 32.914286h62.756572v-6.144c-4.798171 2.048-6.875429-6.202514-6.173258-24.722286v-8.192c1.375086-28.818286-9.596343-45.641143-32.914285-50.439314 20.567771-6.144 31.188114-21.591771 31.890285-46.2848 2.720914-37.010286-25.044114-54.857143-83.324342-53.482057h-89.4976V672.914286h61.732571z m29.257143-107.958857l-4.564114-0.029258h-24.693029v-37.039542h28.789029c16.471771 0.672914 25.044114 7.197257 25.746285 19.543771 0.672914 12.346514-9.274514 18.168686-29.842285 17.495771l4.534857 0.029258z m174.372571 107.958857v-58.631315h30.866286c52.136229-0.672914 78.526171-22.966857 79.199086-66.852571-1.345829-41.837714-28.437943-63.0784-81.247086-63.780571h-90.5216V672.914286h61.732571z m25.746286-102.868115h-25.746286v-42.159542h17.495772c21.942857 0 32.914286 6.524343 32.914285 19.543771 0 15.096686-8.192 22.615771-24.663771 22.615771z" fill="#2c2c2c" p-id="3834"></path></svg>