<?xml version="1.0" standalone="no"?><!DOCTYPE svg PUBLIC "-//W3C//DTD SVG 1.1//EN" "http://www.w3.org/Graphics/SVG/1.1/DTD/svg11.dtd"><svg t="1741683126434" class="icon" viewBox="0 0 1024 1024" version="1.1" xmlns="http://www.w3.org/2000/svg" p-id="15316" xmlns:xlink="http://www.w3.org/1999/xlink" width="200" height="200"><path d="M487.712 727.584h-91.648a24.288 24.288 0 1 1 0-48.576h91.648c13.472 0 24.288 10.816 24.288 24.288s-10.816 24.288-24.288 24.288z m124.896-291.552h-216.544a24.288 24.288 0 1 1 0-48.576h216.544a24.288 24.288 0 0 1 0 48.576z m0-145.76h-216.544a24.288 24.288 0 1 1 0-48.576h216.544a24.32 24.32 0 0 1 0 48.576z m0 291.584h-216.544a24.256 24.256 0 1 1 0-48.544h216.544a24.32 24.32 0 0 1 0 48.544z m260.256 199.776v-50.208l-44.288-9.024a127.616 127.616 0 0 0-13.152-31.648l24.896-37.664-35.584-35.584-37.664 24.896a130.848 130.848 0 0 0-31.648-13.152l-9.024-44.224h-50.208l-9.024 44.192a132.16 132.16 0 0 0-31.68 13.152l-37.312-24.8-35.488 35.616 24.896 37.632a128.256 128.256 0 0 0-13.12 31.68l-44.224 8.992v50.24l44.224 8.992c2.976 11.264 7.392 21.856 13.12 31.68l-24.896 37.632 35.488 35.52 37.632-24.928c9.888 5.76 20.48 10.176 31.68 13.152L676.512 928h50.208l9.024-44.192c11.232-2.976 21.824-7.392 31.68-13.152l37.632 24.928 35.584-35.52-24.896-37.632c5.728-9.76 10.176-20.448 13.152-31.68l43.968-9.12z m-171.36 34.336a59.456 59.456 0 0 1 0-118.976 59.456 59.456 0 1 1 0 118.976z m-189.056 57.344H175.36a24.192 24.192 0 0 1-24.256-24.256V120.288A24.288 24.288 0 0 1 175.36 96h397.696a24.64 24.64 0 0 1 13.024 3.84l164.064 104.672a24.256 24.256 0 0 1 11.232 20.48v318.464a24.192 24.192 0 0 1-24.256 24.288 24.224 24.224 0 0 1-24.288-24.288V238.336l-146.912-93.824H199.648V824.64h312.768c13.44 0 24.256 10.816 24.256 24.288a24.192 24.192 0 0 1-24.224 24.384zM276.064 266.016c0-6.048 2.56-12.192 6.784-16.448 4.352-4.384 10.4-6.816 16.448-6.816s12.16 2.592 16.416 6.848a23.36 23.36 0 0 1 0 32.864 23.552 23.552 0 0 1-16.416 6.752 23.552 23.552 0 0 1-16.448-6.784 23.552 23.552 0 0 1-6.784-16.416z m0 145.728a23.68 23.68 0 0 1 6.784-16.448c4.352-4.352 10.4-6.784 16.448-6.784s12.192 2.56 16.448 6.784c4.352 4.352 6.784 10.4 6.784 16.448s-2.56 12.192-6.784 16.416a23.36 23.36 0 0 1-32.896 0 23.488 23.488 0 0 1-6.784-16.416z m0 145.728c0-6.016 2.56-12.192 6.784-16.416 4.256-4.256 10.4-6.816 16.448-6.816s12.192 2.56 16.448 6.816a23.392 23.392 0 0 1 0 32.864 23.456 23.456 0 0 1-16.448 6.784 23.552 23.552 0 0 1-16.448-6.784 23.68 23.68 0 0 1-6.784-16.448z m0 145.856c0-6.016 2.56-12.192 6.784-16.448 4.352-4.352 10.4-6.784 16.448-6.784s12.192 2.56 16.448 6.784a23.456 23.456 0 0 1 6.784 16.448 23.68 23.68 0 0 1-6.784 16.448 23.456 23.456 0 0 1-16.448 6.784 23.552 23.552 0 0 1-16.448-6.784 24.096 24.096 0 0 1-6.784-16.448z m0 0" fill="#2c2c2c" p-id="15317"></path></svg>