<svg t="1741837399738" class="icon" viewBox="0 0 1024 1024" version="1.1" xmlns="http://www.w3.org/2000/svg" p-id="4237" width="200" height="200"><path d="M678.052728 341.367443c-3.172179-26.400719-17.907465-41.238333-44.410512-44.410513-15.553912 1.534926-27.321675 7.776956-34.996303 18.623764l-86.467473 123.817327-86.467473-123.817327c-8.80024-10.539822-21.386629-17.293495-34.996302-18.623764-28.037973 3.172179-42.875587 17.907465-44.410513 44.410513-1.534926 10.949136 1.534926 19.544719 9.41421 25.684421l74.69971 105.091236h-49.015289c-17.191166 3.069851-26.503048 11.767763-28.037973 25.684421 0 17.191166 9.41421 25.684421 28.037973 25.684421h86.467473v39.703407h-86.467473c-17.191166 3.069851-26.503048 11.665434-28.037973 25.684421 0 17.088838 9.41421 25.684421 28.037973 25.684421h86.467473v72.346158c0 26.503048 14.837614 39.703408 44.410513 39.703407 28.037973 0 42.875587-13.20036 44.410512-39.703407v-72.346158h86.467473c17.191166 0 26.503048-8.595583 28.037973-25.684421-3.172179-14.121315-12.484061-22.61457-28.037973-25.684421H556.691281v-39.703407h86.467473c17.191166 0 26.503048-8.493255 28.037973-25.684421-3.172179-14.018987-12.484061-22.61457-28.037973-25.684421h-49.015289l74.802038-105.091236c6.037374-6.139702 9.107225-14.735285 9.107225-25.684421z m-539.27051 213.45698c17.907465-6.651344 29.777556-23.740182 29.777555-42.773259 0-194.526232 158.301989-352.82822 352.828221-352.82822 125.966224 0.306985 242.211252 67.332068 305.552513 176.311782 12.688718 21.795943 40.624363 29.265914 62.420306 16.577196 21.795943-12.688718 29.265914-40.624363 16.577196-62.420306-79.611472-137.120016-226.04337-221.540921-384.550015-221.847907-207.82892 0-382.708104 143.362047-430.904767 336.455681l-10.130509-11.767762c-16.474868-19.033077-45.331468-21.181973-64.466873-4.707105-19.135405 16.474868-21.284301 45.331468-4.809433 64.364545l77.155591 89.537324c12.58639 14.530629 32.745078 19.749375 50.550215 13.098031zM885.165349 469.175577c-17.907465 6.651344-29.777556 23.740182-29.777555 42.875587 0 194.526232-158.301989 352.82822-352.828221 352.82822-125.966224-0.306985-242.31358-67.434396-305.552513-176.311781-12.688718-21.795943-40.624363-29.265914-62.420306-16.577196-21.795943 12.688718-29.265914 40.624363-16.577196 62.420306 79.611472 137.017688 226.04337 221.540921 384.652344 221.847906 207.82892 0 382.708104-143.464375 431.007095-336.558009l10.130508 11.767762c16.474868 19.135405 45.331468 21.284301 64.364545 4.809434 19.135405-16.474868 21.284301-45.331468 4.809434-64.364545l-77.155591-89.639653C923.129175 467.640652 902.970486 462.524233 885.165349 469.175577z m0 0" fill="#2c2c2c" p-id="4238"></path></svg>