<svg t="1725592004158" class="icon" viewBox="0 0 1024 1024" version="1.1" xmlns="http://www.w3.org/2000/svg" p-id="7794" width="200" height="200"><path d="M483.072 748.992l11.136 50.432-148.48 32.576-11.136-50.496 148.48-32.512z m89.6-469.568l83.008 228.672-48.64 17.664-83.008-228.672 48.64-17.664z m65.536-137.088l154.688 5.76-1.92 51.712-154.688-5.76 1.92-51.712z" fill="#3F464E" p-id="7795"></path><path d="M184.896 1023.872a184.704 184.704 0 0 1-184.512-184.512 184.704 184.704 0 0 1 184.512-184.512 184.704 184.704 0 0 1 184.512 184.512 184.704 184.704 0 0 1-184.512 184.512z m0-303.232a118.848 118.848 0 0 0-118.72 118.72c0 65.472 53.248 118.72 118.72 118.72a118.848 118.848 0 0 0 118.72-118.72 118.848 118.848 0 0 0-118.72-118.72z m522.752 256.448a250.176 250.176 0 0 1-249.856-249.92 250.176 250.176 0 0 1 249.856-249.856 250.176 250.176 0 0 1 249.856 249.856 250.24 250.24 0 0 1-249.856 249.92z m0-430.4a180.672 180.672 0 0 0-180.48 180.48 180.672 180.672 0 0 0 180.48 180.48 180.672 180.672 0 0 0 180.48-180.48 180.672 180.672 0 0 0-180.48-180.48z m-205.44-224.32a161.344 161.344 0 0 1-161.088-161.28A161.28 161.28 0 0 1 502.208 0a161.28 161.28 0 0 1 161.152 161.088 161.28 161.28 0 0 1-161.152 161.28z m0-264.512a103.552 103.552 0 0 0-103.36 103.36c0 57.088 46.336 103.296 103.36 103.424a103.424 103.424 0 0 0 0-206.72V57.792z m359.424 217.792a96 96 0 0 1-95.872-95.872 95.872 95.872 0 1 1 95.872 95.872z m0-139.968a44.288 44.288 0 0 0 0 88.384 44.16 44.16 0 1 0 0-88.32z" fill="#3F464E" p-id="7796"></path></svg>