<?xml version="1.0" standalone="no"?><!DOCTYPE svg PUBLIC "-//W3C//DTD SVG 1.1//EN" "http://www.w3.org/Graphics/SVG/1.1/DTD/svg11.dtd"><svg class="icon" width="200px" height="200.00px" viewBox="0 0 1024 1024" version="1.1" xmlns="http://www.w3.org/2000/svg"><path d="M431.104 669.184c58.88 0 110.592-30.72 140.288-77.312L431.104 503.296V337.408c-91.648 0-165.888 74.24-165.888 165.888s74.24 165.888 165.888 165.888z m230.912-239.616H773.12v32.768h-111.104v-32.768z m0 115.2H773.12v32.768h-111.104v-32.768z m-419.84 198.144h419.328v32.768H242.176v-32.768z m0 76.8h496.128v32.768H242.176v-32.768z" fill="#2C2C2C" /><path d="M825.856 140.8h-105.984c0-43.008-34.816-77.824-77.824-77.824h-4.608c-10.752-30.208-39.424-51.712-73.216-51.712H460.8c-33.792 0-62.464 21.504-73.216 51.712h-4.608c-43.008 0-77.824 34.816-77.824 77.824H199.68c-41.472 0-75.264 33.792-75.264 75.264v729.6c0 41.472 33.792 75.264 75.264 75.264h625.664c41.472 0 75.264-33.792 75.264-75.264V216.064c0.512-41.472-33.28-75.264-74.752-75.264z m-468.48 0c0-14.336 11.776-26.112 26.112-26.112H435.2v-26.112c0-14.336 11.776-26.112 26.112-26.112h103.424c14.336 0 26.112 11.776 26.112 26.112v26.112h51.712c14.336 0 26.112 11.776 26.112 26.112v51.712c0 14.336-11.776 26.112-26.112 26.112H383.488c-14.336 0-26.112-11.776-26.112-26.112V140.8z m492.032 804.864c0 12.8-10.752 23.552-23.552 23.552H199.68c-12.8 0-23.552-10.752-23.552-23.552V216.064c0-12.8 10.752-23.552 23.552-23.552h105.984c0 43.008 34.816 77.824 77.824 77.824h259.072c43.008 0 77.824-34.816 77.824-77.824h105.984c12.8 0 23.552 10.752 23.552 23.552v729.6z" fill="#2C2C2C" /><path d="M431.616 326.144c-97.792 0-177.664 79.872-177.664 177.664s79.872 177.664 177.664 177.664c61.44 0 117.248-30.72 150.016-82.944 17.92-28.16 27.648-61.44 27.648-94.72 0-97.792-79.872-177.664-177.664-177.664z m130.56 260.608c-28.672 45.056-77.312 72.192-130.56 72.192-85.504 0-154.624-69.12-154.624-154.624s69.12-154.624 154.624-154.624 154.624 69.12 154.624 154.624c0 29.184-8.192 57.344-24.064 82.432z" fill="#2C2C2C" /></svg>