<svg t="1732178250314" class="icon" viewBox="0 0 1024 1024" version="1.1" xmlns="http://www.w3.org/2000/svg" p-id="4376" width="200" height="200"><path d="M665.6 761.6c19.2-32 32-70.4 32-108.8 0-108.8-83.2-192-192-192-102.4 0-192 89.6-192 192 0 108.8 83.2 192 192 192 44.8 0 83.2-12.8 115.2-38.4l102.4 115.2c6.4 6.4 12.8 12.8 25.6 12.8 6.4 0 12.8 0 19.2-6.4 12.8-12.8 12.8-32 0-44.8l-102.4-121.6z m-160 19.2c-70.4 0-128-57.6-128-128s57.6-128 128-128 128 57.6 128 128-57.6 128-128 128z m0 0" fill="#2c2c2c" p-id="4377"></path><path d="M979.2 768V140.8c0-38.4-38.4-76.8-76.8-76.8H115.2C76.8 64 44.8 96 44.8 140.8V768c-25.6 12.8-44.8 38.4-44.8 70.4v44.8c0 44.8 32 76.8 70.4 76.8h524.8c19.2 0 32-12.8 32-32s-12.8-32-32-32H70.4c-6.4 0-6.4-6.4-6.4-12.8v-44.8s0-12.8 6.4-12.8H256c19.2 0 32-12.8 32-32s-12.8-32-32-32H108.8V140.8s0-12.8 6.4-12.8h787.2c6.4 0 12.8 6.4 12.8 12.8v620.8h-44.8c-19.2 0-32 12.8-32 32s12.8 32 32 32h70.4c6.4 0 12.8 6.4 12.8 12.8v44.8c0 6.4-6.4 12.8-12.8 12.8H896c-19.2 0-32 12.8-32 32s12.8 32 32 32h51.2c38.4 0 76.8-32 76.8-76.8v-44.8c0-25.6-19.2-57.6-44.8-70.4z m0 0" fill="#2c2c2c" p-id="4378"></path><path d="M723.2 217.6H300.8c-38.4 0-64 32-64 64v44.8c0 38.4 25.6 64 64 64h428.8c38.4 0 64-32 64-64v-44.8c-6.4-38.4-32-64-70.4-64z m25.6 108.8c0 12.8-6.4 19.2-19.2 19.2H300.8c-12.8 0-19.2-12.8-19.2-19.2v-44.8c0-12.8 6.4-19.2 19.2-19.2h428.8c12.8 0 19.2 12.8 19.2 19.2v44.8z m0 0" fill="#2c2c2c" p-id="4379"></path></svg>