<svg t="1710310711515" class="icon" viewBox="0 0 1038 1024" version="1.1" xmlns="http://www.w3.org/2000/svg" p-id="8246" width="200" height="200"><path d="M839.069476 672.54772a198.399876 198.399876 0 0 1-160.5329-80.26695 200.667875 200.667875 0 0 1-320.8408 0 198.626876 198.626876 0 0 1-160.533899 80.26695A195.905878 195.905878 0 0 1 0.122 478.907841a113.371929 113.371929 0 0 1 4.081997-35.823978L111.67993 36.760117A51.469968 51.469968 0 0 1 162.696898 0.02814H877.389452a51.469968 51.469968 0 0 1 51.016968 36.959977l107.929932 406.775746a70.969956 70.969956 0 0 1 0 38.319976A196.132877 196.132877 0 0 1 839.069476 672.54772zM678.537576 491.152833l20.859987 47.38997a153.051904 153.051904 0 0 0 292.044817-59.406962v-2.947999l1.133-3.626997a24.941984 24.941984 0 0 0 0-13.831992v-1.586999L884.420447 48.55211s-2.039999-3.174998-7.029995-3.174998H162.697898a7.935995 7.935995 0 0 0-7.255995 2.946998L47.50997 456.461855a81.626949 81.626949 0 0 0-2.039998 22.673986 150.556906 150.556906 0 0 0 152.369904 148.289907 151.463905 151.463905 0 0 0 139.674913-89.109944l20.859987-47.389971 20.859987 47.389971a153.958904 153.958904 0 0 0 279.347825 0z" p-id="8247" fill="#2c2c2c"></path><path d="M796.669502 370.299909H239.78985a22.673986 22.673986 0 1 1 0-45.349972h556.879652a22.673986 22.673986 0 1 1 0 45.349972m71.197956 653.699591h-693.379567a53.964966 53.964966 0 0 1-54.191966-53.511967V709.959696a22.673986 22.673986 0 0 1 45.348971 0v260.527837a8.162995 8.162995 0 0 0 8.389995 7.709996h693.832567a8.162995 8.162995 0 0 0 8.389994-7.709996V709.959696a22.673986 22.673986 0 0 1 45.347972 0v260.527837A53.964966 53.964966 0 0 1 867.867458 1023.9995z" p-id="8248" fill="#2c2c2c"></path><path d="M614.141616 769.819659h-69.835956v-68.021958a22.673986 22.673986 0 0 0-45.349972 0v68.022958H428.439732a22.673986 22.673986 0 1 0 0 45.347972h70.516956v68.022957a22.673986 22.673986 0 0 0 45.348972 0V815.169631h69.609956a22.673986 22.673986 0 1 0 0-45.347972" p-id="8249" fill="#2c2c2c"></path></svg>