<?xml version="1.0" standalone="no"?><!DOCTYPE svg PUBLIC "-//W3C//DTD SVG 1.1//EN" "http://www.w3.org/Graphics/SVG/1.1/DTD/svg11.dtd"><svg class="icon" width="200px" height="200.00px" viewBox="0 0 1024 1024" version="1.1" xmlns="http://www.w3.org/2000/svg"><path d="M817.3 305.3H762V250c0-61.1-49.5-110.7-110.7-110.7H374.7C313.5 139.3 264 188.8 264 250v55.3h-55.3C147.5 305.3 98 354.8 98 416v359.7c0 61.1 49.5 110.7 110.7 110.7h608.7c61.1 0 110.7-49.5 110.7-110.7V416c-0.1-61.2-49.6-110.7-110.8-110.7z m-498-55.3c0-30.5 24.8-55.3 55.3-55.3h276.7c30.5 0 55.3 24.8 55.3 55.3v55.3H319.3V250z m553.4 525.6c0 30.5-24.8 55.3-55.3 55.3H208.7c-30.5 0-55.3-24.8-55.3-55.3V416c0-30.5 24.8-55.3 55.3-55.3H817.3c30.5 0 55.3 24.8 55.3 55.3v359.6zM540.7 471.3h-55.4V582H374.7v55.3h110.6V748h55.4V637.3h110.6V582H540.7z" /></svg>