<svg t="1776153000442" class="icon" viewBox="0 0 1024 1024" version="1.1" xmlns="http://www.w3.org/2000/svg" p-id="2641" width="200" height="200"><path d="M512 1024c-56.096-89.344-97.184-137.728-123.296-145.184C201.216 825.248 64 652.672 64 448 64 200.576 264.576 0 512 0s448 200.576 448 448c0 203.168-135.232 374.72-320.608 429.632-26.88 7.968-69.376 56.768-127.392 146.368z m295.328-415.648a23.136 23.136 0 0 0-6.72-16.288 22.752 22.752 0 0 0-16.16-6.72H485.76a22.752 22.752 0 0 0-16.192 6.72 23.136 23.136 0 0 0-6.688 16.32v28.32c0 12.704 10.24 23.04 22.88 23.04h298.72c6.08 0 11.872-2.432 16.16-6.752a23.136 23.136 0 0 0 6.72-16.32v-28.32zM513.6 120.576a48 48 0 0 0 17.824 65.44l21.024 12c22.944 13.12 52.128 5.344 65.6-17.536l12.576-21.632a6.016 6.016 0 0 0-2.048-8.32l-93.728-53.664a6.4 6.4 0 0 0-8.672 2.304l-12.576 21.44z m-42.272 73.056l-62.4 107.584 104.448 59.904 48-82.72a1152.064 1152.064 0 0 1 61.472 120.96c19.104 45.44 31.2 93.536 35.904 142.624a20.16 20.16 0 0 0 20.32 18.688h87.328a20.16 20.16 0 0 0 20.576-19.36c0.672-20.96-5.952-62.432-41.824-141.92A1002.56 1002.56 0 0 0 665.6 246.624a20.512 20.512 0 0 0-16.448-8.544h-70.4a29.536 29.536 0 0 0-14.624-25.088L512 183.04a30.272 30.272 0 0 0-40.672 10.56z m-87.104 150.688a29.696 29.696 0 0 0 10.976 40.768l52.128 29.952a30.272 30.272 0 0 0 41.12-10.816l9.824-16.608-104.448-59.904-9.6 16.608zM290.56 689.92v-203.904H192v203.904c0 25.44 20.48 46.08 45.728 46.08h7.072c25.248 0 45.728-20.64 45.728-46.08z m0-226.72v-135.936a12.96 12.96 0 0 0-13.056-12.896H204.8c-7.04 0-12.8 5.76-12.8 12.896v135.936h98.528z m518.624 270.944c6.08 0 11.84-2.4 16.16-6.72a23.136 23.136 0 0 0 6.688-16.32v-3.456a23.136 23.136 0 0 0-6.72-16.288 22.752 22.752 0 0 0-16.128-6.72H337.824a22.752 22.752 0 0 0-16.16 6.72 23.136 23.136 0 0 0-6.72 16.32v3.424c0 6.112 2.432 11.968 6.72 16.32 4.288 4.32 10.112 6.72 16.16 6.72h471.328zM552 279.36a30.048 30.048 0 0 1-40 11.072 30.176 30.176 0 0 1-12.352-41.024 30.272 30.272 0 0 1 41.152-10.816 29.696 29.696 0 0 1 11.2 40.768z m184.224 238.016c-12.8-118.656-98.496-226.72-99.424-227.648a11.584 11.584 0 0 1 1.6-16.128 11.84 11.84 0 0 1 16.224 1.6c3.648 4.384 90.752 115.2 104.224 239.872a11.52 11.52 0 0 1-10.048 12.672h-1.376a11.456 11.456 0 0 1-11.2-10.368z" fill="#2c2c2c" p-id="2642"></path></svg>