<?xml version="1.0" standalone="no"?><!DOCTYPE svg PUBLIC "-//W3C//DTD SVG 1.1//EN" "http://www.w3.org/Graphics/SVG/1.1/DTD/svg11.dtd"><svg class="icon" width="200px" height="200.00px" viewBox="0 0 1024 1024" version="1.1" xmlns="http://www.w3.org/2000/svg"><path d="M204.8 443.835733c0-37.751467 24.439467-86.528 54.749867-108.817066C259.549867 335.018667 477.866667 170.666667 512 170.666667s252.791467 164.590933 252.791467 164.590933c30.037333 22.186667 54.408533 70.724267 54.408533 108.544v307.029333A68.232533 68.232533 0 0 1 751.104 819.2H272.896A68.164267 68.164267 0 0 1 204.8 750.830933v-306.9952zM307.2 409.6c0 18.978133 15.291733 34.133333 34.133333 34.133333 18.978133 0 34.133333-15.291733 34.133334-34.133333 0-18.978133-15.291733-34.133333-34.133334-34.133333-18.978133 0-34.133333 15.291733-34.133333 34.133333z m0 136.533333c0 18.978133 15.291733 34.133333 34.133333 34.133334 18.978133 0 34.133333-15.291733 34.133334-34.133334 0-18.978133-15.291733-34.133333-34.133334-34.133333-18.978133 0-34.133333 15.291733-34.133333 34.133333z m0 136.533334c0 18.978133 15.291733 34.133333 34.133333 34.133333 18.978133 0 34.133333-15.291733 34.133334-34.133333 0-18.978133-15.291733-34.133333-34.133334-34.133334-18.978133 0-34.133333 15.291733-34.133333 34.133334z m102.4-273.066667c0 18.978133 15.2576 34.133333 34.065067 34.133333h239.069866A34.0992 34.0992 0 0 0 716.8 409.6c0-18.978133-15.2576-34.133333-34.065067-34.133333h-239.069866A34.0992 34.0992 0 0 0 409.6 409.6z m0 136.533333c0 18.978133 15.2576 34.133333 34.065067 34.133334h239.069866A34.0992 34.0992 0 0 0 716.8 546.133333c0-18.978133-15.2576-34.133333-34.065067-34.133333h-239.069866A34.0992 34.0992 0 0 0 409.6 546.133333z m0 136.533334c0 18.978133 15.2576 34.133333 34.065067 34.133333h239.069866A34.0992 34.0992 0 0 0 716.8 682.666667c0-18.978133-15.2576-34.133333-34.065067-34.133334h-239.069866A34.0992 34.0992 0 0 0 409.6 682.666667z" fill="#334356" /></svg>