<svg t="1723091127719" class="icon" viewBox="0 0 1024 1024" version="1.1" xmlns="http://www.w3.org/2000/svg" p-id="1010" width="200" height="200"><path d="M889.376098 740.632717a51.343173 51.343173 0 1 1 0 102.294413H122.363964a49.38351 49.38351 0 0 1 3.919326-98.375087 72.899467 72.899467 0 0 0-27.435283 7.838653 112.484661 112.484661 0 0 0 50.95124-98.375088v-228.104783a348.82003 348.82003 0 0 1 279.447957-338.23785v-7.838652a74.85913 74.85913 0 1 1 149.326328 0v7.838652a348.82003 348.82003 0 0 1 279.447956 338.23785v228.104783a123.066842 123.066842 0 0 0 50.951241 98.375088c0-11.757979-7.838652-11.757979-19.596631-11.757979zM507.633728 1024c-78.386524 0-145.407001-47.031914-145.407002-110.133066h287.28661c3.919326 63.101152-63.493084 110.133066-141.879608 110.133066z m0 0" p-id="1011" fill="#d81e06"></path></svg>