<?xml version="1.0" standalone="no"?><!DOCTYPE svg PUBLIC "-//W3C//DTD SVG 1.1//EN" "http://www.w3.org/Graphics/SVG/1.1/DTD/svg11.dtd"><svg t="1710148178091" class="icon" viewBox="0 0 1024 1024" version="1.1" xmlns="http://www.w3.org/2000/svg" p-id="18260" xmlns:xlink="http://www.w3.org/1999/xlink" width="200" height="200"><path d="M969.984 262.784v501.888c0 21.504-3.328 41.856-9.216 61.312-1.536 5.12-3.328 10.24-5.376 15.104-30.336 76.288-104.704 130.176-191.744 130.176H261.504c-113.92 0-206.336-92.416-206.336-206.592V262.784C55.296 148.736 147.712 56.32 261.504 56.32h502.144c87.04 0 161.408 53.888 191.744 130.176 2.048 4.864 3.84 9.984 5.376 15.104 5.888 19.328 9.216 39.808 9.216 61.184z" fill="#FFFFFF" p-id="18261"></path><path d="M234.368 297.472m-47.232 0a47.232 47.232 0 1 0 94.464 0 47.232 47.232 0 1 0-94.464 0Z" fill="#FF9528" p-id="18262"></path><path d="M234.368 370.432c-40.192 0-72.96-32.768-72.96-72.96s32.768-72.96 72.96-72.96 72.96 32.768 72.96 72.96-32.768 72.96-72.96 72.96z m0-133.504c-33.408 0-60.544 27.136-60.544 60.544 0 33.408 27.136 60.544 60.544 60.544s60.544-27.136 60.544-60.544c-0.128-33.408-27.264-60.544-60.544-60.544z" fill="#FF9528" p-id="18263"></path><path d="M234.368 513.792m-47.232 0a47.232 47.232 0 1 0 94.464 0 47.232 47.232 0 1 0-94.464 0Z" fill="#00A6EF" p-id="18264"></path><path d="M234.368 586.752c-40.192 0-72.96-32.768-72.96-72.96s32.768-72.96 72.96-72.96 72.96 32.768 72.96 72.96-32.768 72.96-72.96 72.96z m0-133.504c-33.408 0-60.544 27.136-60.544 60.544 0 33.408 27.136 60.544 60.544 60.544s60.544-27.136 60.544-60.544c-0.128-33.408-27.264-60.544-60.544-60.544z" fill="#00A6EF" p-id="18265"></path><path d="M234.368 730.112m-47.232 0a47.232 47.232 0 1 0 94.464 0 47.232 47.232 0 1 0-94.464 0Z" fill="#3DD347" p-id="18266"></path><path d="M234.368 803.072c-40.192 0-72.96-32.768-72.96-72.96s32.768-72.96 72.96-72.96 72.96 32.768 72.96 72.96-32.768 72.96-72.96 72.96z m0-133.504c-33.408 0-60.544 27.136-60.544 60.544 0 33.408 27.136 60.544 60.544 60.544s60.544-27.136 60.544-60.544c-0.128-33.408-27.264-60.544-60.544-60.544z" fill="#3DD347" p-id="18267"></path><path d="M960.896 201.472h-564.48v-15.104h559.104c2.048 4.992 3.84 10.112 5.376 15.104zM396.416 399.616h573.696V414.72H396.416zM396.416 612.864h573.696v15.104H396.416zM960.896 825.984c-1.536 5.12-3.328 10.24-5.376 15.104H396.416v-15.104h564.48z" fill="#C2C2C7" p-id="18268"></path></svg>