<svg t="1721637318463" class="icon" viewBox="0 0 1024 1024" version="1.1" xmlns="http://www.w3.org/2000/svg" p-id="7027" width="200" height="200"><path d="M879.0016 483.9424C872.448 489.472 720.896 616.448 518.7584 478.8224c-56.1152-38.2976-113.4592-62.0544-170.3936-70.8608-45.6704-6.9632-91.136-4.5056-135.168 7.5776-76.5952 21.0944-121.6512 63.6928-122.2656 64.1024-6.5536 6.144-10.24 14.5408-10.24 23.552-0.2048 9.0112 3.072 17.408 9.4208 23.9616 6.144 6.5536 14.5408 10.24 23.552 10.24 9.0112 0.2048 17.408-3.072 23.9616-9.4208 0.4096-0.4096 35.6352-33.3824 96.6656-49.152 78.6432-20.0704 164.0448-1.024 246.9888 55.296 72.2944 49.152 147.0464 74.1376 222.4128 74.752h2.2528c129.8432 0 216.6784-73.728 217.4976-74.5472 13.9264-12.0832 15.36-33.3824 3.2768-47.3088-12.4928-13.5168-33.792-15.1552-47.7184-3.072zM177.3568 729.2928c14.7456-7.7824 33.3824-15.7696 55.296-21.2992 54.8864-14.1312 142.5408-16.1792 247.1936 55.0912 71.4752 48.7424 145.8176 73.728 220.3648 74.752h4.3008c128.6144 0 213.8112-71.4752 217.4976-74.5472 13.9264-12.0832 15.36-33.3824 3.2768-47.3088-12.0832-13.9264-33.3824-15.5648-47.3088-3.4816-6.3488 5.5296-157.9008 132.3008-360.2432-5.12-159.9488-108.7488-291.2256-77.0048-364.544-40.7552l-3.2768-67.1744L46.4896 772.096l202.1376 7.168-71.2704-49.9712zM840.4992 283.0336c-58.5728 30.9248-176.9472 66.7648-320.7168-30.9248-56.1152-38.2976-113.664-62.0544-170.3936-70.8608-45.6704-6.9632-91.136-4.5056-135.168 7.5776-75.9808 20.8896-121.856 63.6928-122.2656 64.1024-13.312 12.6976-13.7216 33.9968-1.024 47.3088s33.9968 13.9264 47.5136 1.2288c3.8912-3.4816 38.912-35.4304 98.304-50.176 78.848-19.6608 161.3824-0.8192 245.3504 56.1152 72.0896 49.152 147.0464 74.1376 222.4128 74.752h2.2528c68.608 0 124.7232-20.2752 162.816-39.7312l3.6864 73.5232 103.424-172.4416-202.1376-7.168 65.9456 46.6944z" fill="#2c2c2c" p-id="7028"></path></svg>