<?xml version="1.0" standalone="no"?><!DOCTYPE svg PUBLIC "-//W3C//DTD SVG 1.1//EN" "http://www.w3.org/Graphics/SVG/1.1/DTD/svg11.dtd"><svg class="icon" width="200px" height="200.00px" viewBox="0 0 1024 1024" version="1.1" xmlns="http://www.w3.org/2000/svg"><path d="M596.195556 556.600889l-1.137778 1.137778a39.651556 39.651556 0 0 1-54.101334 0l-81.123555-77.368889-81.180445 77.368889a39.537778 39.537778 0 0 1-54.044444 0.910222 35.271111 35.271111 0 0 1-0.967111-51.541333l0.910222-0.910223 108.088889-103.025777a39.253333 39.253333 0 0 1 31.402667-10.410667c8.419556 0.853333 16.440889 4.380444 22.926222 10.467555l81.066667 77.255112L703.146667 351.573333a39.537778 39.537778 0 0 1 54.044444 0.910223 35.214222 35.214222 0 0 1 0 50.631111L596.195556 556.600889z m-318.862223 161.678222h508.472889a39.082667 39.082667 0 0 1 0 78.165333H238.193778a39.082667 39.082667 0 0 1-39.082667-39.082666V209.749333a39.082667 39.082667 0 0 1 78.165333 0v508.529778h0.056889z" fill="#000000" /></svg>