<?xml version="1.0" standalone="no"?><!DOCTYPE svg PUBLIC "-//W3C//DTD SVG 1.1//EN" "http://www.w3.org/Graphics/SVG/1.1/DTD/svg11.dtd"><svg t="1741683172032" class="icon" viewBox="0 0 1024 1024" version="1.1" xmlns="http://www.w3.org/2000/svg" p-id="17423" xmlns:xlink="http://www.w3.org/1999/xlink" width="200" height="200"><path d="M705.066667 674.933333h19.413333v19.36h-19.413333zM743.893333 674.933333h19.413334v19.36h-19.413334zM665.92 674.933333h19.786667v19.36h-19.786667z" p-id="17424"></path><path d="M715.466667 576.266667a139.306667 139.306667 0 1 0 139.466666 139.253333 139.36 139.36 0 0 0-139.466666-139.253333zM685.706667 810.666667h-38.826667v-19.413334h38.826667z m97.013333-0.373334h-38.826667v-19.04h38.826667z m0-38.4h-57.866667V810.666667h-20.16v-38.773334h-57.813333v-19.36h135.84z m-135.84-28.693333v-20.16h135.84v20.16z m135.84-97.28h-38.826667v9.493333h38.826667v58.346667h-135.84v-58.453333h38.826667v-9.44h-38.826667v-19.413334h135.84z" p-id="17425"></path><path d="M704.693333 645.866667h20.16v9.706666h-20.16zM341.333333 149.333333h341.333334v64H341.333333z" p-id="17426"></path><path d="M768 170.666667h-42.666667v85.333333H298.666667V170.666667H234.666667a42.666667 42.666667 0 0 0-42.666667 42.666666v597.333334a42.666667 42.666667 0 0 0 42.666667 42.666666h363.2a181.333333 181.333333 0 0 1 212.8-292.48V213.333333a42.666667 42.666667 0 0 0-42.666667-42.666666z m-370.026667 387.68L276.8 440.266667l36.106667-37.333334 83.626666 81.76 148.053334-146.613333L581.333333 373.333333z" p-id="17427"></path></svg>