<?xml version="1.0" standalone="no"?><!DOCTYPE svg PUBLIC "-//W3C//DTD SVG 1.1//EN" "http://www.w3.org/Graphics/SVG/1.1/DTD/svg11.dtd"><svg class="icon" width="200px" height="200.00px" viewBox="0 0 1024 1024" version="1.1" xmlns="http://www.w3.org/2000/svg"><path d="M826.129714 876.759376l-26.764507-141.726972c103.208198-175.761104 52.423212-401.278184-114.102397-516.404471l32.805463-53.180891a20.441981 20.441981 0 0 0 2.477816-15.48123 20.411264 20.411264 0 0 0-9.174062-12.696247l-17.426622-10.750853 32.232084-52.300345a20.477817 20.477817 0 0 0-6.696247-28.177477L649.774753 3.07843a20.45222 20.45222 0 0 0-28.177476 6.675769l-32.252562 52.300344-17.4471-10.750854a20.436861 20.436861 0 0 0-28.177476 6.675769l-279.414695 453.18945a20.539251 20.539251 0 0 0-2.498293 15.481229 20.564848 20.564848 0 0 0 9.174062 12.696247l17.426622 10.730376-32.232084 52.300345a20.477817 20.477817 0 0 0 6.675768 28.177476l69.726967 43.003416a20.488056 20.488056 0 0 0 28.177477-6.696246l32.252561-52.300345 17.426623 10.730376c3.358362 2.06826 7.064847 3.030717 10.730376 3.030717 6.860069 0 13.576793-3.460751 17.4471-9.747441l160.709908-260.59558c42.163825 31.535838 71.733793 76.320824 84.040962 128.170657 13.88396 58.546079 4.136519 118.996595-27.460753 170.211615-0.47099 0.778157-0.532423 1.658703-0.901024 2.457338-0.307167 0.614335-0.83959 1.085324-1.064846 1.720137l-25.883961 76.689425h-395.40105c-11.303755 0-20.477817 9.153584-20.477818 20.477817 0 11.324233 9.174062 20.477817 20.477818 20.477817h381.558045l-27.66553 81.911268h-353.892515c-11.303755 0-20.477817 9.153584-20.477818 20.477817v20.477817h-20.477817c-11.303755 0-20.477817 9.153584-20.477817 20.477817v81.911269c0 11.324233 9.174062 20.477817 20.477817 20.477817h614.329393c11.324233 0 20.477817-9.153584 20.477817-20.477817v-122.866903c0-0.737201-0.348123-1.351536-0.430034-2.068259-0.046075-0.598976 0.179181-1.151877 0.056314-1.745734zM624.223557 83.561371l21.501708-34.873723 34.853245 21.48123-21.501708 34.873723-12.737203-7.863482-22.116042-13.617748z m-287.569985 544.377169l-34.873723-21.501708 21.481231-34.853244 17.4471 10.730376 17.4471 10.750854-21.501708 34.873722z m77.836183-48.225259l-104.580212-64.464168 257.933464-418.315728 104.60069 64.484646-257.953942 418.29525z m206.457351-256.730393l43.085327-69.870311c144.122877 100.894205 190.177487 295.080224 106.689427 450.015388l-69.870312-43.085327c29.201367-56.477819 37.167238-120.778165 22.361777-183.296941-14.846417-62.493178-50.825942-116.390793-102.266219-153.762809z m63.522189 375.133131l74.989766 46.259389 21.870308 115.720144h-151.535846l54.675772-161.979533z m101.073385 284.841316H212.174041v-40.955634h20.477818c11.303755 0 20.477817-9.153584 20.477817-20.477817v-20.477817h532.418124v81.911268z" /></svg>