<svg t="1739344836914" class="icon" viewBox="0 0 1024 1024" version="1.1" xmlns="http://www.w3.org/2000/svg" p-id="4272" width="200" height="200"><path d="M809.21 895.07H214.9c-47.31 0-85.79-38.49-85.79-85.8V671.94c0-47.31 38.49-85.8 85.79-85.8h118.36c28.59 0 51.85-23.26 51.85-51.86v-1.77c0-10.74-4.92-21.19-13.49-28.67-47.16-41.15-73.86-100.62-73.24-163.16 0.53-54.79 22.07-106.85 60.64-146.57 38.59-39.74 89.98-62.78 144.72-64.86 58.71-2.24 114.28 18.92 156.5 59.57 42.24 40.67 65.5 95.35 65.5 153.98 0 64.8-28.93 125.37-79.39 166.19-4.68 3.78-7.36 9.22-7.36 14.94v6.98c0 30.45 24.77 55.23 55.22 55.23h114.98c47.31 0 85.79 38.49 85.79 85.8v137.32c0.02 47.31-38.47 85.81-85.77 85.81zM214.9 628.45c-23.98 0-43.48 19.51-43.48 43.48v137.32c0 23.98 19.5 43.48 43.48 43.48h594.3c23.98 0 43.48-19.51 43.48-43.48V671.94c0-23.98-19.5-43.48-43.48-43.48H694.22c-53.78 0-97.54-43.76-97.54-97.55v-6.98c0-18.55 8.41-35.99 23.06-47.84 40.47-32.74 63.68-81.32 63.68-133.29 0-47.01-18.66-90.87-52.54-123.49-33.86-32.6-78.46-49.48-125.54-47.77-89.92 3.42-163.78 79.48-164.66 169.55-0.49 50.15 20.93 97.85 58.75 130.86 17.79 15.52 27.98 37.6 27.98 60.56v1.77c0 51.93-42.24 94.18-94.17 94.18H214.9z" p-id="4273"></path><path d="M617.84 789.27H406.27c-11.68 0-21.16-9.47-21.16-21.16s9.47-21.16 21.16-21.16h211.57c11.68 0 21.16 9.47 21.16 21.16s-9.48 21.16-21.16 21.16z" p-id="4274"></path></svg>