<?xml version="1.0" standalone="no"?><!DOCTYPE svg PUBLIC "-//W3C//DTD SVG 1.1//EN" "http://www.w3.org/Graphics/SVG/1.1/DTD/svg11.dtd"><svg t="1741684549734" class="icon" viewBox="0 0 1024 1024" version="1.1" xmlns="http://www.w3.org/2000/svg" p-id="32149" xmlns:xlink="http://www.w3.org/1999/xlink" width="200" height="200"><path d="M814.904775 240.634546L700.286294 127.687124c-4.979408-4.934382-11.675924-7.649214-18.653849-7.649214h-453.682803c-14.68956 0-26.583448 11.878538-26.583448 26.565029v646.661979c0 7.18054 2.918469 14.111392 8.132214 19.105127l80.354096 80.344886c10.290367 9.92607 26.601868 9.92607 36.901445 0l81.963756-81.905428 85.053118 82.009806c10.304693 9.928117 26.601868 9.928117 36.897352 0l85.058234-82.009806 85.052095 82.009806a26.462698 26.462698 0 0 0 18.451234 7.460925c6.646374 0 13.31526-2.480494 18.464537-7.460925l77.003792-74.240865a26.672476 26.672476 0 0 0 8.112771-19.136849v-539.886118a26.472931 26.472931 0 0 0-7.906063-18.920931zM333.717548 347.691817h169.110559c13.015432 0 23.564695 10.54824 23.564695 23.564695 0 13.011338-10.54824 23.564695-23.564695 23.564695H333.717548c-13.011338 0-23.564695-10.553357-23.564696-23.564695 0.001023-13.015432 10.55438-23.564695 23.564696-23.564695z m344.496031 308.954561h-344.496031c-13.011338 0-23.564695-10.54824-23.564696-23.564695 0-13.011338 10.553357-23.564695 23.564696-23.564696h344.496031c13.015432 0 23.564695 10.553357 23.564695 23.564696 0 13.016455-10.549264 23.564695-23.564695 23.564695z m0-130.914632h-344.496031c-13.011338 0-23.564695-10.54824-23.564696-23.564695 0-13.011338 10.553357-23.564695 23.564696-23.564695h344.496031c13.015432 0 23.564695 10.553357 23.564695 23.564695 0 13.015432-10.549264 23.564695-23.564695 23.564695z m85.931115-219.890083h-99.480712c-21.787212 0-39.515992-17.72878-39.515992-39.521108v-86.659709c0-13.015432 10.54824-23.564695 23.564695-23.564695s23.564695 10.54824 23.564695 23.564695v79.051427h91.868337c13.015432 0 23.564695 10.54824 23.564695 23.564695-0.001023 13.011338-10.550287 23.564695-23.565718 23.564695z m0 0" p-id="32150" fill="#2c2c2c"></path></svg>