<?xml version="1.0" standalone="no"?><!DOCTYPE svg PUBLIC "-//W3C//DTD SVG 1.1//EN" "http://www.w3.org/Graphics/SVG/1.1/DTD/svg11.dtd"><svg t="1741684629573" class="icon" viewBox="0 0 1024 1024" version="1.1" xmlns="http://www.w3.org/2000/svg" p-id="38655" xmlns:xlink="http://www.w3.org/1999/xlink" width="200" height="200"><path d="M808.448 112H215.552a23.52 23.52 0 0 0-23.488 23.52v752.928c0 12.992 10.528 23.52 23.488 23.52h592.864a23.52 23.52 0 0 0 23.488-23.52V135.52a23.488 23.488 0 0 0-23.456-23.52z m-24 729.152a23.52 23.52 0 0 1-23.52 23.488H263.104a23.52 23.52 0 0 1-23.52-23.488V182.88c0-12.992 10.528-23.52 23.52-23.52h497.824c12.992 0 23.52 10.528 23.52 23.52v658.272zM354.208 298.816a63.584 63.584 0 1 0 127.168 0 63.584 63.584 0 0 0-127.168 0z m171.488 138.304c0-29.824-24.128-53.984-53.952-53.984h-107.808c-29.824 0-53.984 24.16-53.984 53.984v37.312h215.712V437.12z m189.632 109.92a24.224 24.224 0 0 1-24.224 24.224H332.896a24.192 24.192 0 1 1 0-48.416h358.176c13.408 0 24.256 10.816 24.256 24.192z m0 96.8a24.192 24.192 0 0 1-24.224 24.192H332.896a24.192 24.192 0 0 1 0-48.384h358.176c13.408 0 24.256 10.816 24.256 24.192z m0 88.544a24.224 24.224 0 0 1-24.224 24.192H332.896a24.224 24.224 0 0 1 0-48.416h358.176c13.408 0 24.256 10.848 24.256 24.224z" fill="#2c2c2c" p-id="38656"></path></svg>