<?xml version="1.0" standalone="no"?><!DOCTYPE svg PUBLIC "-//W3C//DTD SVG 1.1//EN" "http://www.w3.org/Graphics/SVG/1.1/DTD/svg11.dtd"><svg t="1741683808802" class="icon" viewBox="0 0 1024 1024" version="1.1" xmlns="http://www.w3.org/2000/svg" p-id="27144" xmlns:xlink="http://www.w3.org/1999/xlink" width="200" height="200"><path d="M896 0H0v224h896V0zM160 160H64V64h96v96z m147.2 0H204.8V64h96v96z m140.8 0H352V64H448v96z m448 128H0V512h896V288zM160 448H64V352h96V448z m147.2 0H204.8V352h96V448zM448 448H352V352H448V448z m300.8 217.6c-19.2 0-32 12.8-32 32v140.8c0 19.2 12.8 32 32 32h128c19.2 0 32-12.8 32-32s-12.8-32-32-32h-96v-108.8c0-19.2-12.8-32-32-32z m32-128c-44.8 0-83.2 12.8-115.2 32H0v224h524.8l51.2 57.6 89.6-115.2h-57.6a178.88 178.88 0 0 1 352 44.8c0 102.4-83.2 179.2-179.2 179.2-51.2 0-102.4-25.6-140.8-64-12.8-12.8-32-12.8-44.8-6.4-12.8 12.8-12.8 32-6.4 44.8 44.8 51.2 115.2 83.2 185.6 83.2 134.4 0 243.2-108.8 243.2-243.2 6.4-128-102.4-236.8-236.8-236.8z m-620.8 192H64V627.2h96v102.4z m147.2 0H204.8V627.2h96v102.4z m140.8 0H352V627.2H448v102.4z" fill="#2c2c2c" p-id="27145"></path></svg>