<?xml version="1.0" standalone="no"?><!DOCTYPE svg PUBLIC "-//W3C//DTD SVG 1.1//EN" "http://www.w3.org/Graphics/SVG/1.1/DTD/svg11.dtd"><svg t="1741684525147" class="icon" viewBox="0 0 1024 1024" version="1.1" xmlns="http://www.w3.org/2000/svg" p-id="30983" xmlns:xlink="http://www.w3.org/1999/xlink" width="200" height="200"><path d="M832.17 968.249H192c-58.88 0-106.667-50.062-106.667-111.616V168.505c0-61.61 47.787-111.616 106.667-111.616h640c58.88 0 106.667 50.005 106.667 111.616v688.128c0.17 61.44-47.787 111.616-106.496 111.616zM208.44 145.18c-19.455 0-35.555 16.783-35.555 37.206V844.23c0 20.594 16.1 37.205 35.556 37.205h609.394a36.352 36.352 0 0 0 35.555-37.205V182.386c0-20.423-15.872-37.206-35.555-37.206H208.44z" p-id="30984" fill="#2c2c2c"></path><path d="M676.181 597.333H290.93c-19.342 0-34.93-19.057-34.93-42.666S271.588 512 290.93 512H676.18c19.343 0 34.93 19.058 34.93 42.667s-15.587 42.666-34.93 42.666zM735.971 768H288.029C270.28 768 256 748.942 256 725.333s14.28-42.666 32.028-42.666h447.944c17.749 0 32.028 19.057 32.028 42.666S753.72 768 735.972 768zM256 284.444a56.889 56.889 0 1 0 113.778 0 56.889 56.889 0 0 0-113.778 0z m199.111 0a56.889 56.889 0 1 0 113.778 0 56.889 56.889 0 0 0-113.778 0z m199.111 0a56.889 56.889 0 1 0 113.778 0 56.889 56.889 0 0 0-113.778 0z" p-id="30985" fill="#2c2c2c"></path></svg>