<?xml version="1.0" standalone="no"?><!DOCTYPE svg PUBLIC "-//W3C//DTD SVG 1.1//EN" "http://www.w3.org/Graphics/SVG/1.1/DTD/svg11.dtd"><svg t="1741684480249" class="icon" viewBox="0 0 1024 1024" version="1.1" xmlns="http://www.w3.org/2000/svg" p-id="29100" xmlns:xlink="http://www.w3.org/1999/xlink" width="200" height="200"><path d="M504.832 1003.52H129.536c-42.496 1.536-78.848-31.232-81.408-73.728V91.136C50.688 48.128 86.528 15.36 129.536 16.896H880.64c42.496-1.536 78.848 31.232 81.408 73.728v478.72c-0.512 19.456-16.896 34.816-36.864 34.304-18.944-0.512-33.792-15.872-34.304-34.304V91.136c-0.512-3.584-2.56-7.168-5.12-9.728H129.536c-2.56 2.56-4.608 6.144-5.12 9.728v838.656l5.12 5.12h375.296c18.944 0 34.304 15.36 34.304 34.304 0.512 18.944-15.36 34.304-34.304 34.304z m15.36-419.328H256c-16.384-2.048-27.648-17.408-25.6-33.28v-1.024c-1.024-15.872 9.728-30.72 25.6-34.304h268.8c16.384 2.048 27.648 17.408 25.6 33.28v1.024c1.024 17.408-12.8 32.768-30.208 34.304z m-116.736 187.392H261.12c-18.944 0.512-34.816-13.824-35.328-32.768v-1.536c2.048-17.92 17.408-30.72 35.328-29.696h142.336c18.944-0.512 34.816 13.824 35.328 32.768v1.536c-2.048 17.92-17.408 31.232-35.328 29.696z m481.792 222.208L768.512 880.64c-13.824-11.776-15.36-31.744-3.584-45.568 1.024-1.536 2.56-2.56 3.584-3.584 12.8-13.824 34.816-14.848 48.64-2.048 0.512 0.512 1.536 1.024 2.048 2.048l116.736 113.664c13.824 11.776 15.36 31.744 3.584 45.568-1.024 1.536-2.56 2.56-3.584 3.584-15.36 9.216-35.328 9.216-50.688-0.512z m-207.872-350.208c54.272 1.536 97.28 47.104 95.744 101.376-1.536 54.272-47.104 97.28-101.376 95.744-53.248-1.536-95.744-45.056-95.744-98.816 1.024-54.784 46.08-99.328 101.376-98.304m0-64.512c-92.672-2.56-169.984 70.144-172.544 162.816s70.144 169.984 162.816 172.544h9.728c92.672 2.56 169.984-70.144 172.544-162.816s-70.144-169.984-162.816-172.544h-9.728z m-91.136-133.12c-10.752 0.512-20.48-5.12-25.6-14.848L469.504 244.224l-35.328 73.728c-5.12 9.216-14.848 14.848-25.6 14.848H266.24c-15.872-1.024-29.184-13.312-30.72-29.696 1.536-15.872 14.336-28.672 30.72-29.696h121.856l55.808-108.544c8.192-13.824 26.112-18.944 39.936-10.752 4.608 2.56 8.192 6.144 10.752 10.752l91.136 187.392 35.328-64c5.12-9.216 14.848-14.848 25.6-14.848h137.216c15.872 1.024 29.184 13.312 30.72 29.696-1.536 15.872-14.336 28.672-30.72 29.696h-116.736l-55.808 103.424c-7.168 6.144-15.872 9.728-25.088 9.728z" p-id="29101" fill="#2c2c2c"></path></svg>