<?xml version="1.0" standalone="no"?><!DOCTYPE svg PUBLIC "-//W3C//DTD SVG 1.1//EN" "http://www.w3.org/Graphics/SVG/1.1/DTD/svg11.dtd"><svg t="1722411136291" class="icon" viewBox="0 0 1024 1024" version="1.1" xmlns="http://www.w3.org/2000/svg" p-id="5362" xmlns:xlink="http://www.w3.org/1999/xlink" width="200" height="200"><path d="M501.055488 53.248c-257.886208 0-466.944 209.057792-466.944 466.944s209.057792 466.944 466.944 466.944 466.944-209.057792 466.944-466.944S758.941696 53.248 501.055488 53.248zM501.055488 876.544c-196.808704 0-356.352-159.543296-356.352-356.352s159.543296-356.352 356.352-356.352 356.352 159.543296 356.352 356.352S697.864192 876.544 501.055488 876.544z" fill="#2c2c2c" p-id="5363"></path><path d="M501.055488 225.28c-162.875392 0-294.912 132.036608-294.912 294.912 0 162.875392 132.036608 294.912 294.912 294.912 162.875392 0 294.912-132.036608 294.912-294.912C795.967488 357.316608 663.932928 225.28 501.055488 225.28zM475.29984 265.742336c7.544832-7.7312 17.549312-11.606016 30.0032-11.606016 13.205504 0 23.676928 3.874816 31.414272 11.606016 7.7312 7.739392 11.606016 17.831936 11.606016 30.285824s-3.874816 22.554624-11.606016 30.285824c-7.737344 7.739392-18.210816 11.606016-31.414272 11.606016-12.453888 0-22.458368-3.864576-30.0032-11.606016-7.553024-7.729152-11.321344-17.831936-11.321344-30.285824S467.746816 273.481728 475.29984 265.742336zM595.873792 765.872128c-12.081152 0-26.605568-0.186368-43.587584-0.565248-16.982016-0.372736-34.52928-0.565248-52.645888-0.565248-14.718976 0-29.063168 0.19456-43.020288 0.565248-13.96736 0.380928-26.23488 0.565248-36.796416 0.565248l-1.132544-18.11456c12.453888-1.132544 22.360064-2.73408 29.718528-4.8128 7.360512-2.070528 13.109248-5.564416 17.266688-10.471424 4.1472-4.900864 6.88128-11.603968 8.208384-20.097024 1.318912-8.491008 1.980416-19.902464 1.980416-34.248704l0-148.877312c0-10.561536-0.565248-18.866176-1.697792-24.907776-1.132544-6.03136-3.493888-10.754048-7.07584-14.15168-3.590144-3.395584-8.871936-6.03136-15.849472-7.92576-6.987776-1.88416-16.132096-3.76832-27.455488-5.660672l-1.697792-16.416768c11.692032-2.26304 23.492608-4.616192 35.3792-7.07584 11.886592-2.449408 23.013376-4.99712 33.398784-7.641088 10.375168-2.635776 19.617792-5.095424 27.736064-7.358464 8.112128-2.26304 14.239744-4.333568 18.397184-6.227968l5.660672 4.528128c-1.132544 9.437184-2.07872 19.441664-2.830336 30.001152-0.759808 10.569728-1.325056 21.041152-1.697792 31.418368-0.380928 10.38336-0.663552 20.19328-0.84992 29.435904-0.19456 9.252864-0.282624 17.266688-0.282624 24.057856l0 150.011904c0 9.056256 0.565248 16.328704 1.697792 21.794816 1.132544 5.474304 3.680256 9.719808 7.641088 12.736512 3.96288 3.026944 9.906176 5.095424 17.831936 6.227968 7.923712 1.132544 18.866176 2.07872 32.831488 2.830336L595.873792 765.872128z" fill="#2c2c2c" p-id="5364"></path></svg>