<svg t="1742476949241" class="icon" viewBox="0 0 1024 1024" version="1.1" xmlns="http://www.w3.org/2000/svg" p-id="8170" width="200" height="200"><path d="M659.968 314.231467a167.5264 167.5264 0 0 0-266.376533-196.9152 167.5264 167.5264 0 0 0 0 236.817066l94.276266 94.276267a34.030933 34.030933 0 0 0 48.264534 0l94.276266-94.276267c12.0832-12.0832 21.947733-25.565867 29.559467-39.936z m-201.591467 197.290666a34.030933 34.030933 0 0 0-9.966933-23.6544l-94.276267-94.276266a167.5264 167.5264 0 0 0-236.817066 236.817066 167.5264 167.5264 0 0 0 236.817066 0l94.242134-94.276266a34.065067 34.065067 0 0 0 10.001066-24.576z m-94.344533 198.280534a167.5264 167.5264 0 0 0 266.376533 196.881066 167.5264 167.5264 0 0 0 0-236.817066l-94.276266-94.242134a34.030933 34.030933 0 0 0-48.264534 0l-94.276266 94.242134a167.355733 167.355733 0 0 0-29.559467 39.936z m201.591467-197.3248a33.9968 33.9968 0 0 0 9.966933 23.6544l94.276267 94.276266a167.5264 167.5264 0 0 0 236.817066-236.817066 167.5264 167.5264 0 0 0-236.817066 0l-94.276267 94.276266a33.9968 33.9968 0 0 0-9.966933 24.610134z m16.520533-346.897067a99.191467 99.191467 0 0 1 0 140.288L512 375.978667l-70.144-70.109867a99.191467 99.191467 0 1 1 140.288-140.288z m-140.288 552.584533L512 648.021333l70.144 70.144a99.191467 99.191467 0 1 1-140.288 0z m-276.2752-276.309333a99.191467 99.191467 0 0 1 140.288 0L375.978667 512l-70.109867 70.144a99.191467 99.191467 0 1 1-140.288-140.288z m692.8384 0a99.191467 99.191467 0 1 1-140.288 140.288L648.021333 512l70.109867-70.144a99.191467 99.191467 0 0 1 140.288 0z" fill="#2c2c2c" p-id="8171"></path></svg>