<?xml version="1.0" standalone="no"?><!DOCTYPE svg PUBLIC "-//W3C//DTD SVG 1.1//EN" "http://www.w3.org/Graphics/SVG/1.1/DTD/svg11.dtd"><svg t="1741684764050" class="icon" viewBox="0 0 1116 1024" version="1.1" xmlns="http://www.w3.org/2000/svg" p-id="41621" xmlns:xlink="http://www.w3.org/1999/xlink" width="217.96875" height="200"><path d="M477.5712 856.023117a17.056114 17.056114 0 0 1 0-7.752779v-317.863948a23.258338 23.258338 0 0 1 11.887594-20.157226l272.897829-158.673548a23.258338 23.258338 0 0 1 23.258337 0 24.292042 24.292042 0 0 1 11.370743 20.157226v29.977413a140.066878 140.066878 0 0 1 20.674078 0h56.336862V279.733195a64.606493 64.606493 0 0 0-32.04482-55.82001L469.301568 8.902775a63.055938 63.055938 0 0 0-64.606493 0L32.044821 223.913185A64.606493 64.606493 0 0 0 0 279.733195v430.020821a64.606493 64.606493 0 0 0 32.044821 55.82001L404.695075 982.134992a65.640197 65.640197 0 0 0 64.606493 0l34.112229-20.157226a142.134286 142.134286 0 0 1-7.235927-15.505558 155.055584 155.055584 0 0 1-18.60667-90.449091z m-79.078348-7.752779a23.77519 23.77519 0 0 1-3.101112 11.887595 22.741486 22.741486 0 0 1-33.595377 8.269631l-272.897828-159.1904a23.258338 23.258338 0 0 1-11.887595-20.157226V371.732842A23.77519 23.77519 0 0 1 80.112052 361.912655a23.258338 23.258338 0 0 1 31.527969-8.269631l275.482088 156.60614a24.292042 24.292042 0 0 1 11.370743 20.157226z m51.685194-404.695075a23.258338 23.258338 0 0 1-23.258337 0L150.403917 284.901715a19.123522 19.123522 0 0 1-8.269631-8.786483 22.741486 22.741486 0 0 1 8.269631-31.527969l274.965236-158.673548a23.258338 23.258338 0 0 1 23.258338 0L723.592727 244.587263a26.876301 26.876301 0 0 1 8.786483 8.269631 23.77519 23.77519 0 0 1-8.786483 32.044821z" p-id="41622" fill="#2c2c2c"></path><path d="M1074.018347 503.530089a413.481558 413.481558 0 0 0-254.291158-71.325569 418.650078 418.650078 0 0 0-254.80801 71.325569 103.37039 103.37039 0 0 0-41.348156 77.527792v294.088758c0 83.730016 130.246691 148.853361 296.156166 148.853361s296.156166-65.123345 296.156166-148.853361v-294.088758a103.37039 103.37039 0 0 0-41.865008-77.527792zM604.716779 568.653434a136.448914 136.448914 0 0 1 42.381859-28.426857A332.852654 332.852654 0 0 1 723.592727 516.968239a533.908062 533.908062 0 0 1 194.336332 0 350.425621 350.425621 0 0 1 75.460384 23.77519A150.403917 150.403917 0 0 1 1033.703895 568.653434a27.910005 27.910005 0 0 1 7.75278 14.471855 28.426857 28.426857 0 0 1-7.75278 14.471854 150.403917 150.403917 0 0 1-42.381859 28.426857 332.852654 332.852654 0 0 1-75.460385 23.77519 533.908062 533.908062 0 0 1-194.336332 0 332.852654 332.852654 0 0 1-75.460384-23.77519 136.448914 136.448914 0 0 1-42.38186-28.426857 24.808893 24.808893 0 0 1-7.752779-14.471854 24.808893 24.808893 0 0 1 8.786483-14.471855z m437.773599 161.257808a28.426857 28.426857 0 0 1-7.752779 14.471854 150.403917 150.403917 0 0 1-42.381859 28.426857 350.425621 350.425621 0 0 1-75.460385 23.77519 533.908062 533.908062 0 0 1-194.336332 0 332.852654 332.852654 0 0 1-75.460385-23.77519 136.448914 136.448914 0 0 1-42.381859-28.426857 24.808893 24.808893 0 0 1-7.752779-14.471854v-47.033527a473.436384 473.436384 0 0 0 222.763189 51.685194 473.436384 473.436384 0 0 0 222.763189-51.685194zM604.716779 889.101642a22.741486 22.741486 0 0 1-7.752779-13.955003V827.079408a473.436384 473.436384 0 0 0 222.763189 49.100935 473.436384 473.436384 0 0 0 222.763189-49.100935v47.550379a28.426857 28.426857 0 0 1-7.752779 14.471855 150.403917 150.403917 0 0 1-42.381859 28.426857 332.852654 332.852654 0 0 1-75.460385 23.775189 533.908062 533.908062 0 0 1-194.336332 0 332.852654 332.852654 0 0 1-75.460385-23.775189 128.696135 128.696135 0 0 1-42.381859-28.426857z" p-id="41623" fill="#2c2c2c"></path><path d="M635.211044 705.6192a23.258338 23.258338 0 1 0 22.741485 23.258338 23.258338 23.258338 0 0 0-22.741485-23.258338zM635.211044 852.405153a23.258338 23.258338 0 1 0 22.741485 22.741486 23.258338 23.258338 0 0 0-22.741485-22.741486z" p-id="41624" fill="#2c2c2c"></path></svg>