<?xml version="1.0" standalone="no"?><!DOCTYPE svg PUBLIC "-//W3C//DTD SVG 1.1//EN" "http://www.w3.org/Graphics/SVG/1.1/DTD/svg11.dtd"><svg t="1741683759251" class="icon" viewBox="0 0 1024 1024" version="1.1" xmlns="http://www.w3.org/2000/svg" p-id="24871" xmlns:xlink="http://www.w3.org/1999/xlink" width="200" height="200"><path d="M350.72 788.16a35.306667 35.306667 0 1 1-35.2 35.2 35.306667 35.306667 0 0 1 35.2-35.2m0-53.333333a88.64 88.64 0 1 0 88.64 88.533333 88.64 88.64 0 0 0-88.64-88.533333z" p-id="24872" fill="#2c2c2c"></path><path d="M350.72 734.826667A100.8 100.8 0 0 1 362.666667 736L249.493333 285.333333l-93.12-75.946666a26.666667 26.666667 0 0 0-33.706666 41.386666l79.36 64.746667L309.333333 745.066667a88.64 88.64 0 0 1 41.386667-10.24zM911.36 660.053333a26.773333 26.773333 0 0 0-32-19.413333l-468.8 117.333333a88.853333 88.853333 0 0 1 26.773333 48l454.613334-113.6a26.666667 26.666667 0 0 0 19.413333-32.32zM633.706667 542.72A26.56 26.56 0 0 1 608 522.666667l-31.36-125.333334a26.666667 26.666667 0 0 1 19.413333-32l125.226667-31.253333a26.666667 26.666667 0 1 1 12.906667 51.733333l-99.306667 24.853334 24.746667 99.2a26.773333 26.773333 0 0 1-19.413334 32 27.733333 27.733333 0 0 1-6.506666 0.853333z" p-id="24873" fill="#2c2c2c"></path><path d="M892.16 540.693333A29.226667 29.226667 0 0 0 878.72 522.666667L659.306667 390.72a28.693333 28.693333 0 0 0-15.146667-4.16A29.653333 29.653333 0 0 0 618.666667 400.853333a29.44 29.44 0 0 0 10.666666 40.426667l219.093334 131.84a28.48 28.48 0 0 0 15.04 4.16 29.76 29.76 0 0 0 25.386666-14.293333 29.12 29.12 0 0 0 3.306667-22.293334z" p-id="24874" fill="#2c2c2c"></path><path d="M845.866667 339.52a26.026667 26.026667 0 0 0 2.986666-19.52l-42.666666-171.306667a46.613333 46.613333 0 0 0-45.226667-35.413333 45.76 45.76 0 0 0-11.413333 1.386667l-384 96A46.933333 46.933333 0 0 0 331.52 266.666667l96 384a46.4 46.4 0 0 0 45.226667 35.413333 45.013333 45.013333 0 0 0 11.306666-1.386667l170.666667-42.666666a26.133333 26.133333 0 0 0-12.693333-50.773334l-165.333334 41.28L384 259.52l373.333333-93.12 41.28 165.866667a26.133333 26.133333 0 0 0 47.786667 7.253333z" p-id="24875" fill="#2c2c2c"></path></svg>