<?xml version="1.0" standalone="no"?><!DOCTYPE svg PUBLIC "-//W3C//DTD SVG 1.1//EN" "http://www.w3.org/Graphics/SVG/1.1/DTD/svg11.dtd"><svg class="icon" width="200px" height="200.00px" viewBox="0 0 1024 1024" version="1.1" xmlns="http://www.w3.org/2000/svg"><path d="M835.584 907.502933h-179.780267a35.9424 35.9424 0 0 1 0-71.918933h143.837867c19.8656 0 35.9424-16.0768 35.9424-35.9424v-143.837867a35.9424 35.9424 0 0 1 71.918933 0v179.780267a71.918933 71.918933 0 0 1-71.918933 71.918933z m35.976533-503.364266a35.9424 35.9424 0 0 1-35.976533-35.976534V224.3584c0-19.8656-16.0768-35.9424-35.9424-35.9424h-143.837867a35.9424 35.9424 0 1 1 0-71.918933h179.780267c39.7312 0 71.918933 32.187733 71.918933 71.918933v179.746133c0 19.8656-16.0768 35.976533-35.9424 35.976534zM368.162133 188.416H224.3584c-19.8656 0-35.9424 16.0768-35.9424 35.9424v143.803733a35.9424 35.9424 0 0 1-71.918933 0V188.416c0-39.7312 32.187733-71.918933 71.918933-71.918933h179.746133a35.9424 35.9424 0 1 1 0 71.918933zM188.416 512c0-9.898667 8.021333-17.988267 17.954133-17.988267h611.259734a17.988267 17.988267 0 1 1 0 35.976534H206.370133A17.988267 17.988267 0 0 1 188.416 512z m-35.976533 107.861333c19.8656 0 35.976533 16.110933 35.976533 35.9424v143.837867c0 19.8656 16.0768 35.9424 35.9424 35.9424h143.803733a35.9424 35.9424 0 0 1 0 71.918933H188.416a71.918933 71.918933 0 0 1-71.918933-71.918933v-179.780267c0-19.831467 16.0768-35.9424 35.9424-35.9424z" /></svg>