<svg t="1710310639047" class="icon" viewBox="0 0 1024 1024" version="1.1" xmlns="http://www.w3.org/2000/svg" p-id="6487" width="200" height="200"><path d="M864.256 536.576H184.32c-14.336 0-26.624-8.192-26.624-20.48 0-10.24 12.288-20.48 26.624-20.48h681.984c14.336 0 26.624 8.192 26.624 20.48-2.048 10.24-14.336 20.48-28.672 20.48z m-565.248 120.832H389.12v90.112h-90.112v-90.112z m-69.632-202.752h251.904V202.752H229.376v251.904z m38.912-212.992h174.08v174.08h-174.08v-174.08z m43.008 40.96h90.112v90.112h-90.112v-90.112z m483.328-79.872H542.72v251.904h251.904V202.752z m-38.912 212.992h-174.08v-174.08h174.08v174.08z m-133.12-133.12h90.112v90.112h-90.112v-90.112zM229.376 825.344h251.904V573.44H229.376v251.904z m38.912-212.992h174.08v174.08h-174.08v-174.08z m368.64 106.496V675.84h43.008v-45.056h-43.008v-43.008h-45.056v43.008h-43.008V675.84h43.008v43.008h45.056z m139.264 6.144h-43.008v-43.008h-45.056v43.008h-43.008v45.056h43.008v43.008h45.056v-43.008h43.008v-45.056z m10.24-32.768V593.92h-4.096v-12.288h-98.304v45.056h57.344v65.536h45.056z m-200.704 28.672h-45.056V819.2h102.4v-45.056h-57.344v-53.248zM120.832 266.24c8.192 0 16.384-8.192 16.384-16.384V131.072h110.592c8.192 0 16.384-8.192 16.384-16.384s-8.192-16.384-16.384-16.384H120.832c-8.192 0-16.384 8.192-16.384 16.384v135.168c0 10.24 8.192 16.384 16.384 16.384z m808.96-167.936h-126.976c-8.192 0-16.384 8.192-16.384 16.384s8.192 16.384 16.384 16.384h110.592v118.784c0 8.192 8.192 16.384 16.384 16.384s16.384-8.192 16.384-16.384V114.688c0-8.192-8.192-16.384-16.384-16.384zM245.76 892.928H137.216v-118.784c0-8.192-8.192-16.384-16.384-16.384-10.24 0-18.432 6.144-18.432 16.384v135.168c0 8.192 8.192 16.384 16.384 16.384H245.76c8.192 0 16.384-8.192 16.384-16.384s-6.144-16.384-16.384-16.384zM929.792 757.76c-8.192 0-16.384 8.192-16.384 16.384v118.784h-110.592c-8.192 0-16.384 8.192-16.384 16.384s8.192 16.384 16.384 16.384h126.976c8.192 0 16.384-8.192 16.384-16.384v-135.168c0-10.24-8.192-16.384-16.384-16.384z" fill="#2c2c2c" p-id="6488"></path></svg>