<svg t="1723091833750" class="icon" viewBox="0 0 1024 1024" version="1.1" xmlns="http://www.w3.org/2000/svg" p-id="14747" width="200" height="200"><path d="M718.33 780h-542.3c-20.2 0-36.57-16.38-36.57-36.57V510.36c0-20.2 16.38-36.57 36.57-36.57h542.3c9.09 0 17.85 3.38 24.57 9.48L871.33 599.8c7.64 6.95 12 16.77 12 27.09s-4.36 20.14-12 27.09L742.9 770.52a36.505 36.505 0 0 1-24.57 9.48zM212.6 706.86h491.62l88.12-79.96-88.12-79.96H212.6v159.92zM846.76 458.91H304.47c-9.09 0-17.85-3.38-24.57-9.48L151.46 332.89a36.577 36.577 0 0 1 0-54.18L279.9 162.18a36.505 36.505 0 0 1 24.57-9.48h542.29c20.2 0 36.57 16.38 36.57 36.57v233.07c0 20.2-16.37 36.57-36.57 36.57z m-528.18-73.14h491.61V225.84H318.58l-88.12 79.96 88.12 79.97z" fill="#1afa29" p-id="14748"></path><path d="M511.34 871.64c-20.2 0-36.57-16.38-36.57-36.57v-91.66c0-20.2 16.38-36.57 36.57-36.57 20.2 0 36.57 16.38 36.57 36.57v91.66c0 20.2-16.37 36.57-36.57 36.57zM511.34 546.88c-20.2 0-36.57-16.38-36.57-36.57v-87.98c0-20.2 16.38-36.57 36.57-36.57 20.2 0 36.57 16.38 36.57 36.57v87.98c0 20.19-16.37 36.57-36.57 36.57z" fill="#1afa29" p-id="14749"></path></svg>