<svg t="1722995805039" class="icon" viewBox="0 0 1024 1024" version="1.1" xmlns="http://www.w3.org/2000/svg" p-id="5446" width="200" height="200"><path d="M1021.808662 952.556234c-56.503755-145.099349-147.00397-379.552044-157.796822-412.811231V63.99936h31.98944a31.99968 31.99968 0 0 0 0-63.99936H480.01568a31.99968 31.99968 0 1 0 0 63.99936H512.00512v475.745643c-10.813332 33.259187-101.313547 267.711883-157.817302 412.811231a32.284349 32.284349 0 0 0-2.170858 11.632524 59.884969 59.884969 0 0 0 59.801002 59.801002h552.340077A59.905449 59.905449 0 0 0 1024 964.188758a32.304829 32.304829 0 0 0-2.191338-11.632524zM794.99493 63.99936c2.826212-0.032768 4.566994 0.530427 4.99707 0.342013V511.99488h-224.048959l-0.122879-63.99936h64.183678a31.99968 31.99968 0 0 0 0-63.99936h-64.306557l-0.122879-63.99936h64.429436a31.99968 31.99968 0 0 0 0-63.99936h-64.572794l-0.122879-63.99936h64.695673a31.99968 31.99968 0 0 0 0-63.99936h-64.818552l-0.122879-62.811532a11.538317 11.538317 0 0 1 5.918661-1.187828h214.01386z m-375.02601 895.99104c95.374406-244.99979 132.401876-343.03657 146.819652-383.99616h242.419336c14.417776 40.95959 51.465725 138.99637 146.819652 383.99616H419.96892zM320.00704 0H31.99968a31.99968 31.99968 0 0 0 0 63.99936v815.99696a144.00368 144.00368 0 0 0 288.00736 0V63.99936a31.99968 31.99968 0 1 0 0-63.99936zM256.00768 879.99632a79.99408 79.99408 0 0 1-159.98816 0V575.99424H256.00768v304.00208zM256.00768 511.99488H96.01952v-63.99936h63.97888a31.99968 31.99968 0 1 0 0-63.99936H96.01952v-63.99936h63.97888a31.99968 31.99968 0 1 0 0-63.99936H96.01952V191.99808h63.97888a31.99968 31.99968 0 1 0 0-63.99936H96.01952V63.99936H256.00768V511.99488z m352.00672 352.00672h63.97888v-64.01984h-63.97888v64.01984z m95.9888 0H768.00256v-64.01984h-63.99936v64.01984z m-95.9888-127.99872h63.97888v-64.01984h-63.97888v64.01984z m95.9888-64.01984v64.01984H768.00256v-64.01984h-63.99936z" fill="#2c2c2c" p-id="5447"></path></svg>