<svg t="1744355685746" class="icon" viewBox="0 0 1109 1024" version="1.1" xmlns="http://www.w3.org/2000/svg" p-id="2731" width="200" height="200"><path d="M1022.549454 984.152654h8.532622v-8.532622a48.294642 48.294642 0 0 0-8.532622 8.532622zM610.935755 651.551037l-3.754353-0.682609-1.706525-37.97017V526.377469s54.950087-36.690276 62.032164-91.128406c2.815765-0.170652 5.546204-0.511957 9.129906-0.938589 39.676694-5.119573 68.346304-107.169736 68.346304-107.169736s1.706524-47.782685-22.184818-47.782685c-2.559787 0-29.437547 0.511957-31.570702 1.194568l6.143488-84.643613 0.68261-18.08916S698.48046 1.877177 493.185568 0.085326C280.12599 1.706524 319.973336 96.418632 319.973336 96.418632l0.170652 0.68261c-26.621782 16.04133-39.932672 40.44463-39.932672 90.445796 0 80.206649 7.167403 97.35722 10.83643 100.855595l-27.645696-9.04458s-34.301142 3.583701-31.314724 45.734856c2.901092 42.065828 36.690276 104.097992 76.281643 109.132239 2.986418 0.255979 5.546204 0.597284 8.020665 0.68261 0.170652 66.298475 55.462045 92.920257 55.462045 92.920256l0.511957 82.595784-74.233813 40.103325-219.288393 72.697942S-0.426631 747.799017 0 850.873094v144.542621h625.697192c-34.983751-44.540288-72.441963-118.60345-72.441963-179.526372-0.426631-59.728356 19.88101-117.92084 57.680526-164.338306z m203.332389-46.502791a209.475877 209.475877 0 0 0 0 418.866428 209.475877 209.475877 0 0 0 0-418.951754z m134.986085 170.823098a6197.499542 6197.499542 0 0 0-129.525206 130.890426c-0.853262 5.2049-5.290226 8.532622-9.300559 12.372302-5.375552 5.375552-12.20165 12.628281-20.478293 16.809266-10.921757 7.935339-17.235897 6.484793-23.891343 0.938589a48.635947 48.635947 0 0 1-15.529372-11.604367c-27.048413-28.584285-50.086493-48.12399-79.780018-79.353387-24.659278-25.853846-11.604366-37.287559 1.450545-50.171819 24.915257-25.000583 37.202233-10.153821 50.769103 3.498375l50.683776 50.513124c51.451712-52.475627 68.602283-72.527289 125.770853-129.013249 27.133739-26.621782 39.591367-12.88426 47.782684-4.778268 12.286976 12.286976 30.120157 32.423965 2.04783 59.899008z" fill="#2c2c2c" p-id="2732"></path></svg>