<svg t="1740976243618" class="icon" viewBox="0 0 1077 1024" version="1.1" xmlns="http://www.w3.org/2000/svg" p-id="2852" width="200" height="200"><path d="M835.368421 458.105263c48.505263 0 97.010526 10.778947 140.126316 26.947369 5.389474 0 10.778947 5.389474 10.778947 16.168421v167.073684c0 43.115789-16.168421 86.231579-48.505263 113.178947 80.842105 16.168421 140.126316 91.621053 140.126316 177.852632 0 10.778947-5.389474 21.557895-16.168421 32.336842s-21.557895 16.168421-32.336842 16.168421h-393.431579c-10.778947 0-21.557895-5.389474-32.336842-16.168421s-10.778947-21.557895-10.778948-32.336842c0-86.231579 59.284211-156.294737 140.126316-177.852632-32.336842-26.947368-48.505263-70.063158-48.505263-113.178947V495.831579c0-5.389474 0-10.778947 10.778947-16.168421 43.115789-16.168421 91.621053-21.557895 140.126316-21.557895z m86.231579 371.873684l-86.231579 123.957895 53.894737-43.115789 53.894737-37.726316-21.557895-43.11579zM711.410526 0c16.168421 0 26.947368 10.778947 26.947369 26.947368v37.726316h91.621052c59.284211 0 107.789474 48.505263 107.789474 107.789474v220.968421H59.284211v436.547368c0 26.947368 21.557895 53.894737 53.894736 53.894737h361.094737c10.778947 0 21.557895 5.389474 26.947369 16.168421s0 21.557895-5.389474 32.336842c-5.389474 5.389474-10.778947 10.778947-21.557895 10.778948H107.789474c-59.284211 0-107.789474-48.505263-107.789474-107.789474V177.852632c0-59.284211 48.505263-107.789474 107.789474-107.789474h91.621052V26.947368c5.389474-16.168421 16.168421-26.947368 32.336842-26.947368s26.947368 10.778947 26.947369 26.947368v37.726316h420.378947V26.947368c0-16.168421 16.168421-26.947368 32.336842-26.947368z m37.726316 829.978947l-21.557895 48.505264 53.894737 37.726315 26.947369 21.557895 5.389473-10.778947-64.673684-97.010527z m21.557895-26.947368l59.28421 86.231579 64.673685-86.231579c-16.168421 5.389474-32.336842 10.778947-48.505264 10.778947h-10.778947c-21.557895 5.389474-43.115789 0-64.673684-10.778947z m-59.284211-296.421053v123.957895c5.389474 0 10.778947-5.389474 16.168421-5.389474s10.778947 0 16.168421 5.389474c5.389474 5.389474 5.389474 10.778947 5.389474 16.168421 0 5.389474-5.389474 10.778947-10.778947 10.778947-10.778947 0-16.168421 5.389474-26.947369 10.778948v5.389474c0 64.673684 53.894737 118.568421 118.568421 118.568421h5.389474c64.673684-5.389474 113.178947-59.284211 113.178947-123.957895h5.389474c-37.726316-16.168421-80.842105-21.557895-118.568421-21.557895h-43.115789c-10.778947 0-16.168421-5.389474-16.168421-16.168421s5.389474-16.168421 16.168421-16.168421h48.505263c43.115789 0 80.842105 5.389474 118.568421 21.557895V512c-80.842105-32.336842-167.073684-32.336842-247.91579-5.389474z m-183.242105 210.189474c16.168421 0 26.947368 10.778947 26.947368 26.947368s-10.778947 26.947368-26.947368 26.947369H199.410526c-16.168421 0-26.947368-10.778947-26.947368-26.947369s10.778947-26.947368 26.947368-26.947368h328.757895z m307.2-215.578947c5.389474 0 10.778947 5.389474 16.168421 10.778947v21.557895h10.778947c5.389474 0 16.168421 5.389474 16.168422 16.168421 0 5.389474-5.389474 10.778947-10.778948 16.168421h-21.557895v16.168421c0 5.389474-5.389474 16.168421-16.168421 16.168421-5.389474 0-10.778947-5.389474-16.168421-10.778947v-21.557895h-16.168421c-5.389474 0-16.168421-5.389474-16.168421-16.168421 0-5.389474 5.389474-10.778947 10.778948-16.168421h21.557894v-16.168421c5.389474-5.389474 10.778947-16.168421 21.557895-16.168421z m-414.989474 10.778947c16.168421 0 26.947368 10.778947 26.947369 26.947368s-10.778947 26.947368-26.947369 26.947369H199.410526c-16.168421 0-26.947368-10.778947-26.947368-26.947369s10.778947-26.947368 26.947368-26.947368h220.968421z" fill="#2c2c2c" p-id="2853"></path></svg>