<?xml version="1.0" standalone="no"?><!DOCTYPE svg PUBLIC "-//W3C//DTD SVG 1.1//EN" "http://www.w3.org/Graphics/SVG/1.1/DTD/svg11.dtd"><svg t="1742348126107" class="icon" viewBox="0 0 1024 1024" version="1.1" xmlns="http://www.w3.org/2000/svg" p-id="4809" xmlns:xlink="http://www.w3.org/1999/xlink" width="200" height="200"><path d="M237.568 401.408v155.136c0 13.824 7.168 26.112 18.944 31.232l24.064 12.288c1.536 1.536 5.12 1.536 7.168 1.536 10.24 0 17.408-7.168 17.408-17.408v-148.48l-67.584-34.304z m0 0" p-id="4810" fill="#2c2c2c"></path><path d="M888.32 195.584l-327.68-168.96c-39.936-20.48-88.064-20.48-128 0l-327.68 171.008C59.904 218.112 30.72 266.752 30.72 318.464v385.024c0 51.712 29.184 98.304 74.24 122.368l329.728 171.008c18.944 10.24 41.472 15.872 64 15.872s43.008-5.12 64-15.872l55.296-28.672c-14.848-18.432-27.136-38.912-35.84-61.44l-50.688 26.624v-417.792l362.496-184.832v267.264c25.6 10.24 48.64 25.088 69.12 43.008v-322.56c-0.512-51.712-29.696-100.352-74.752-122.88zM460.288 931.328l-323.072-167.424c-24.064-11.776-37.888-36.352-37.888-61.952V330.752l138.24 70.656 67.584 34.816 155.136 79.36v415.744zM496.64 456.704L123.904 266.752c3.584-3.584 8.704-6.656 13.824-8.192l327.68-171.008c10.24-5.12 20.48-8.704 31.232-8.704 10.24 0 22.528 1.536 31.232 6.656l327.68 168.96c5.12 2.048 8.704 5.12 13.824 8.704L496.64 456.704z m0 0" p-id="4811" fill="#2c2c2c"></path><path d="M962.56 708.608c-17.92-25.088-41.472-46.08-69.12-60.416-27.136-14.336-57.344-22.528-89.6-22.528-106.496 0-193.536 86.528-193.536 193.536 0 23.04 4.096 45.568 11.776 66.56 8.192 23.04 20.48 43.52 36.352 61.44 35.328 40.448 87.552 66.048 145.408 66.048 106.496 0 193.536-86.528 193.536-193.536 0-41.984-12.8-79.872-34.816-111.104z m-158.72 246.784c-33.792 0-65.024-12.288-89.088-33.28-19.968-16.896-34.816-39.936-41.984-65.536-3.584-11.776-5.632-24.576-5.632-37.888 0-75.264 61.44-136.704 136.704-136.704 35.84 0 68.096 13.824 92.672 36.352 21.504 19.968 36.864 46.592 41.984 77.312 1.024 7.68 2.048 15.36 2.048 23.04 0 75.776-61.44 136.704-136.704 136.704z m0 0" p-id="4812" fill="#2c2c2c"></path><path d="M872.448 841.728h-91.136v-91.136c0-12.8 10.24-23.04 22.528-23.04s22.528 10.24 22.528 23.04v45.568h45.568c12.8 0 22.528 10.24 22.528 22.528 0.512 12.8-9.728 23.04-22.016 23.04z m0 0" p-id="4813" fill="#2c2c2c"></path></svg>