<svg t="1741837441244" class="icon" viewBox="0 0 1024 1024" version="1.1" xmlns="http://www.w3.org/2000/svg" p-id="5375" width="200" height="200"><path d="M686.933333 354.133333l-204.8 230.4-93.866666-85.333333c-17.066667-12.8-42.666667-12.8-55.466667 4.266667-8.533333 8.533333-12.8 17.066667-8.533333 29.866666 0 12.8 4.266667 21.333333 12.8 29.866667l123.733333 110.933333c8.533333 8.533333 17.066667 8.533333 25.6 8.533334 12.8 0 21.333333-4.266667 29.866667-12.8l234.666666-260.266667c12.8-17.066667 12.8-42.666667-4.266666-55.466667-17.066667-17.066667-42.666667-17.066667-59.733334 0z" p-id="5376" fill="#2c2c2c"></path><path d="M921.6 145.066667c-12.8-12.8-25.6-17.066667-46.933333-12.8-17.066667 4.266667-34.133333 4.266667-51.2 4.266666-34.133333 0-68.266667-4.266667-102.4-17.066666-81.066667-25.6-140.8-76.8-170.666667-106.666667-8.533333-8.533333-21.333333-12.8-38.4-12.8-12.8 0-29.866667 4.266667-38.4 17.066667a354.133333 354.133333 0 0 1-170.666667 102.4c-59.733333 17.066667-115.2 21.333333-157.866666 12.8h-12.8c-25.6 0-46.933333 21.333333-46.933334 51.2v354.133333c0 221.866667 166.4 418.133333 413.866667 486.4h25.6c247.466667-72.533333 409.6-264.533333 409.6-486.4V183.466667c4.266667-12.8 0-25.6-12.8-38.4z m-64 392.533333c0 179.2-140.8 341.333333-345.6 405.333333-204.8-59.733333-345.6-221.866667-345.6-405.333333V217.6c46.933333 4.266667 102.4-4.266667 157.866667-17.066667 68.266667-21.333333 136.533333-55.466667 187.733333-106.666666 42.666667 34.133333 102.4 81.066667 183.466667 106.666666 55.466667 17.066667 110.933333 25.6 162.133333 21.333334v315.733333z" p-id="5377" fill="#2c2c2c"></path></svg>