<svg t="1752415504277" class="icon" viewBox="0 0 1024 1024" version="1.1" xmlns="http://www.w3.org/2000/svg" p-id="4411" width="200" height="200"><path d="M831.345 205.384C924.355 303.549 966.88 435.507 951.74 569.6c-12.759 113.034-74.567 216.371-161.187 288.369-183.598 152.617-460.852 120.1-615.66-55.762C38.881 647.706 35.625 414.5 153.938 249.677 285.834 65.93 544.553 18.827 737.598 131.016c28.605 16.624 54.364-27.633 25.84-44.212C542.075-41.84 260.88 19.461 109.727 223.836-30.474 413.41-6.426 683.095 152.125 853.258c160.215 171.945 429.348 201.395 626.217 76.416 208.62-132.439 282.143-403.558 181.412-626.432-22.425-49.607-54.866-94.648-92.211-134.062-22.743-24.013-58.89 12.257-36.198 36.204z" p-id="4412" fill="#2c2c2c"></path><path d="M769.935 713.272c17.04 1.526 26.343 10.066 27.9 25.575-1.562 13.952-10.86 21.688-27.9 23.25H495.58c-62.008-3.124-115.487-21.725-160.425-55.798-3.123 1.561-7.777 4.649-13.952 9.298-23.25 18.6-44.175 32.548-62.776 41.85-13.952 4.65-24.049 0.764-30.223-11.627-6.211-17.075-3.124-28.697 9.297-34.877 46.5-17.04 70.513-41.052 72.075-72.075V513.357c0-17.04-6.974-25.575-20.926-25.575h-46.5c-12.426 0-19.4-7.741-20.925-23.25 1.526-15.472 8.5-23.25 20.925-23.25h74.4c26.342 0 39.526 12.427 39.526 37.202v144.108c4.648 57.36 48.824 87.552 132.526 90.675h281.333zM370.033 352.937c9.298 13.952 7.741 25.574-4.65 34.877-12.426 7.778-24.048 4.65-34.877-9.298a1158.625 1158.625 0 0 0-69.75-81.377c-10.859-12.39-11.627-24.013-2.324-34.877 12.39-7.737 24.776-6.175 37.202 4.649 21.688 20.157 46.5 48.824 74.399 86.026z m369.679 83.697c-1.562 23.25-14.75 35.676-39.526 37.202H463.032v165.032c0 4.65 2.325 6.211 6.974 4.65 27.899-15.473 51.154-30.992 69.755-46.5 15.472-10.824 27.899-10.066 37.202 2.324 9.297 12.426 6.973 24.812-6.974 37.202a494.976 494.976 0 0 1-99.978 58.127c-37.202 13.952-55.798 3.124-55.798-32.547V285.512c-3.123-29.425 11.628-43.377 44.175-41.851h237.154c30.991-3.088 45.7 10.102 44.175 39.526v153.447zM460.708 334.336h232.504v-25.574c1.526-15.473-3.886-22.452-16.276-20.926H479.309c-12.426 0-18.601 6.974-18.601 20.926v25.574z m216.228 95.324c10.823 0 16.276-5.417 16.276-16.276v-34.878H460.708v51.149h216.228z m-65.101 104.592c10.824 7.772 18.6 13.946 23.25 18.595 21.688-13.952 44.938-33.285 69.75-58.086 10.823-10.824 22.45-11.628 34.877-2.325 10.824 12.427 10.824 24.807 0 37.177-13.952 13.936-36.434 32.532-67.425 55.787 27.899 24.812 51.149 48.825 69.75 72.075 10.823 15.508 10.823 27.898 0 37.201-12.427 7.778-24.812 5.448-37.202-6.973-52.71-60.452-113.163-112.363-181.35-155.766-10.865-9.282-11.628-20.096-2.325-32.522 9.298-12.39 20.126-14.715 32.548-6.973 13.952 9.292 33.315 23.244 58.127 41.81z" p-id="4413" fill="#2c2c2c"></path></svg>