<?xml version="1.0" standalone="no"?><!DOCTYPE svg PUBLIC "-//W3C//DTD SVG 1.1//EN" "http://www.w3.org/Graphics/SVG/1.1/DTD/svg11.dtd"><svg t="1741683730876" class="icon" viewBox="0 0 1024 1024" version="1.1" xmlns="http://www.w3.org/2000/svg" p-id="22882" xmlns:xlink="http://www.w3.org/1999/xlink" width="200" height="200"><path d="M542.37 566.38v97.45h-60.74v-97.45q-22.6-4.24-43.78-14.13-21.19-9.88-33.9-26.84-24.01-22.6-35.31-54.38t-7.06-72.74q80.51-1.41 125.7 42.37 16.95 18.36 24.01 35.31 8.48-16.95 24.01-35.31 22.6-22.6 54.38-34.61 31.78-12 72.74-7.76 1.41 81.92-42.37 127.12-14.12 16.95-34.6 26.84-20.48 9.88-43.08 14.13z m420.9-385.59V60.73H59.32v120.06h903.95z m60.73 0v60.73h-60.73v662.42H59.32V241.52H0V0h1024v180.79z m-903.94 60.73v603.1h783.88v-603.1H120.06z" fill="#2c2c2c" p-id="22883"></path></svg>