<svg t="1742477061210" class="icon" viewBox="0 0 1024 1024" version="1.1" xmlns="http://www.w3.org/2000/svg" p-id="9259" width="200" height="200"><path d="M431.616 348.928v31.232h62.592v14.976h-62.592v31.36h62.592v31.872h31.232v-31.872h62.464v-31.36H525.44V380.16h62.464v-31.232H529.28l65.152-65.152-22.144-22.144-62.464 62.592-62.592-62.592-22.144 22.144 65.152 65.152z" p-id="9260" fill="#2c2c2c"></path><path d="M512 32C246.912 32 32 246.912 32 512c0 265.088 214.912 480 480 480 265.088 0 480-214.912 480-480 0-265.088-214.912-480-480-480z m-2.176 162.56c88.576 0 160.256 71.808 160.256 160.256 0 88.576-71.808 160.256-160.256 160.256-88.576 0-160.256-71.808-160.256-160.256-0.128-88.448 71.68-160.256 160.256-160.256zM827.904 592c-19.584 13.824-206.592 137.728-232.96 152.832-30.976 17.92-58.368 45.696-122.496 14.592-20.864-10.112-104.192-53.504-131.328-67.456-28.032-14.464-40.064-12.032-61.696 1.792l-39.168 25.472-76.8-170.496s83.328-38.784 121.472-53.76c60.16-23.68 87.68-3.328 122.24 18.304 14.592 9.088 62.08 43.776 62.08 43.776s47.36 27.648 94.336 27.648c71.808 0 84.48 4.096 84.48 27.008 0 25.088-46.848 27.008-46.976 27.008h-115.2c-39.168 0-94.08-22.528-94.08-22.528s46.592 49.536 94.08 49.536h115.456c25.472-0.512 73.728-12.416 73.728-54.016 0-54.016-49.152-54.016-111.488-54.016-4.864 0-9.216-0.768-13.568-1.664 2.432-1.28 4.736-2.56 7.68-4.224 11.136-6.272 25.984-15.232 43.008-25.728 44.416-27.52 67.2-30.976 89.344-1.792 15.488-15.616 34.944-19.968 51.584-19.968 18.688 0 34.688 12.416 30.208 32.384 48.128-28.416 71.936-17.024 82.432-3.328 13.952 18.048 4.352 36.992-26.368 58.624z" p-id="9261" fill="#2c2c2c"></path></svg>