<svg t="1765335959863" class="icon" viewBox="0 0 1024 1024" version="1.1" xmlns="http://www.w3.org/2000/svg" p-id="4772" width="200" height="200"><path d="M694.838857 202.752c-54.912 55.424-146.304 190.171429-146.304 270.628571s65.499429 145.664 146.304 145.664c80.822857 0 146.304-65.206857 146.304-145.664s-89.197714-213.741714-146.304-270.628571z m-175.542857 273.060571c0-34.304 14.006857-76.946286 34.852571-120.466285C510.500571 285.970286 460.708571 222.793143 420.571429 182.857143 331.355429 273.005714 182.857143 491.885714 182.857143 622.628571 182.857143 753.371429 289.243429 859.428571 420.571429 859.428571c123.154286 0 224.493714-93.330286 236.470857-212.918857-78.774857-17.188571-137.746286-87.04-137.746286-170.697143z m1.865143 141.44c0 14.025143-11.245714 25.417143-25.161143 25.417143h-40.246857v38.162286a25.234286 25.234286 0 0 1-25.179429 25.417143h-25.161143a25.307429 25.307429 0 0 1-25.179428-25.417143v-38.144H345.051429a25.362286 25.362286 0 0 1-25.179429-25.435429v-25.435428c0-14.025143 11.245714-25.417143 25.179429-25.417143h35.181714v-38.162286c0-14.025143 11.245714-25.435429 25.179428-25.435428h25.161143c13.860571 0 25.179429 11.410286 25.179429 25.417143v38.162285h40.228571c13.933714 0 25.179429 11.410286 25.179429 25.417143v25.453714z" fill="#2c2c2c" p-id="4773"></path></svg>