<?xml version="1.0" standalone="no"?><!DOCTYPE svg PUBLIC "-//W3C//DTD SVG 1.1//EN" "http://www.w3.org/Graphics/SVG/1.1/DTD/svg11.dtd"><svg class="icon" width="200px" height="200.00px" viewBox="0 0 1024 1024" version="1.1" xmlns="http://www.w3.org/2000/svg"><path d="M675.526656 808.643584l-2.571264-2.548736L93.887488 806.094848c-23.056384 0-40.998912-17.85344-40.998912-40.79104l0-535.38816c0-22.9376 17.932288-43.336704 40.998912-43.336704l825.05728 0c23.066624 0 41.001984 17.84832 41.001984 40.800256l0 321.220608 2.56 2.54976c12.811264 7.650304 25.617408 17.850368 35.877888 30.587904l10.24512 12.7488L1008.62976 217.166848c0-43.339776-35.876864-79.026176-79.424512-79.026176L81.07008 138.140672c-43.552768 0-79.428608 35.6864-79.428608 79.026176l0 560.87552c0 43.3408 35.876864 79.0272 79.428608 79.0272l627.762176 0-7.68512-10.19904C690.896896 834.130944 683.211776 821.383168 675.526656 808.643584L675.526656 808.643584 675.526656 808.643584zM675.526656 808.643584" fill="#272636" /><path d="M442.620928 563.801088l210.664448 0 0 50.983936L442.620928 614.785024 442.620928 563.801088 442.620928 563.801088 442.620928 563.801088zM442.620928 563.801088" fill="#272636" /><path d="M442.620928 662.035456l105.332736 0 0 50.98496L442.620928 713.020416 442.620928 662.035456 442.620928 662.035456 442.620928 662.035456zM442.620928 662.035456" fill="#272636" /><path d="M854.8864 553.7024c-94.794752 0-169.109504 73.925632-169.109504 168.262656 0 91.779072 76.874752 168.265728 169.109504 168.265728 94.811136-0.01024 169.1136-73.94816 169.1136-168.278016C1024 627.628032 947.125248 553.7024 854.8864 553.7024L854.8864 553.7024 854.8864 553.7024zM852.3264 823.932928c-7.68512 7.648256-23.056384 7.648256-33.301504 0l-71.743488-71.37792c-7.68512-7.650304-7.68512-22.951936 0-30.589952 7.68512-7.650304 23.056384-7.650304 33.3056 0l56.368128 56.088576 110.181376-107.075584c7.68512-7.653376 23.056384-7.653376 33.301504 0 7.686144 7.650304 7.686144 22.948864 0 30.598144L852.3264 823.932928 852.3264 823.932928 852.3264 823.932928zM852.3264 823.932928" fill="#272636" /><path d="M240.238592 298.539008c-65.46432 0-118.535168 56.846336-118.535168 126.967808l0 174.2848c0 70.122496 53.070848 126.967808 118.535168 126.967808 65.465344 0 118.536192-56.845312 118.536192-126.967808l0-174.2848C358.774784 355.385344 305.703936 298.539008 240.238592 298.539008L240.238592 298.539008zM327.750656 610.093056c0 44.106752-38.433792 79.865856-85.844992 79.865856s-85.844992-35.759104-85.844992-79.865856L156.060672 500.462592l171.68896 0L327.749632 610.093056 327.750656 610.093056zM327.750656 610.093056" fill="#272636" /><path d="M529.211392 326.520832l0-39.865344c0-6.293504 4.885504-9.44128 14.688256-9.44128 9.785344 0.704512 15.031296 4.196352 15.735808 10.49088l0 38.815744 77.630464 0c8.392704 0.704512 12.93312 5.950464 13.637632 15.735808-0.704512 9.801728-5.244928 14.687232-13.637632 14.687232l-77.630464 0 0 47.207424 71.334912 0c7.688192 0.705536 11.884544 5.951488 12.59008 15.735808-0.704512 9.802752-4.901888 14.687232-12.59008 14.687232l-71.334912 0 0 51.4048L644.608 485.979136c7.688192 0.704512 11.88352 5.244928 12.59008 13.637632-0.705536 9.786368-4.901888 15.030272-12.59008 15.736832L429.550592 515.3536c-8.392704-0.705536-12.589056-5.950464-12.589056-15.736832 0.688128-8.392704 5.244928-12.93312 13.637632-13.637632l98.6112 0 0-51.4048-73.434112 0c-8.39168 0-12.588032-5.244928-12.588032-15.735808 0.688128-9.080832 5.588992-13.981696 14.686208-14.687232l71.335936 0 0-47.207424-57.698304 0c-7.703552 13.99808-15.391744 26.587136-23.078912 37.766144-9.09824 10.49088-18.195456 13.293568-27.276288 8.39168-6.99904-5.588992-6.654976-14.32576 1.048576-26.225664 18.178048-24.4736 30.767104-52.4544 37.766144-83.924992 1.393664-7.688192 6.982656-10.834944 16.785408-9.442304 9.080832 2.098176 13.277184 6.99904 12.589056 14.687232-1.409024 4.196352-3.147776 10.49088-5.245952 18.883584-1.409024 4.196352-2.097152 7.343104-2.097152 9.44128L529.211392 326.520832z" fill="#272636" /><path d="M805.505024 304.490496l82.875392 0c6.294528 0.704512 9.786368 5.950464 10.49088 15.735808-0.704512 9.801728-4.196352 14.687232-10.49088 14.687232l-35.667968 0c5.590016 5.605376 7.345152 11.899904 5.246976 18.88256-3.509248 9.801728-8.04864 18.538496-13.637632 26.226688l47.208448 0c7.686144 0.704512 11.882496 5.950464 12.588032 15.735808-0.704512 10.49088-4.901888 15.735808-12.588032 15.735808L710.039552 411.4944c-4.196352 0-5.950464 2.802688-5.245952 8.39168-1.409024 46.158848-7.343104 79.368192-17.83296 99.661824-4.197376 6.982656-10.852352 9.080832-19.93216 6.294528-7.703552-3.509248-10.146816-9.442304-7.344128-17.835008 9.081856-29.37344 13.981696-60.845056 14.687232-94.415872l0-18.88256c0.688128-8.392704 5.93408-13.277184 15.735808-14.687232l43.012096 0c-1.410048-1.39264-3.508224-4.54144-6.294528-9.442304-2.802688-4.195328-5.244928-8.736768-7.344128-13.637632-4.195328-9.786368-2.801664-17.129472 4.197376-22.030336l-38.815744 0c-7.703552 0-11.899904-4.885504-12.588032-14.687232 0.688128-9.786368 4.88448-15.031296 12.588032-15.735808l84.973568 0c-1.409024-0.689152-3.145728-3.147776-5.244928-7.344128-3.5072-5.588992-1.048576-11.539456 7.344128-17.833984 9.080832-4.88448 17.472512-3.49184 25.177088 4.196352 3.49184 4.196352 5.590016 6.99904 6.294528 8.392704C806.897664 297.506816 807.6032 301.703168 805.505024 304.490496zM767.737856 380.022784l43.012096 0c2.788352-4.88448 6.294528-12.588032 10.489856-23.079936 1.394688-3.490816 3.147776-6.982656 5.245952-10.49088l1.048576-2.097152c2.787328-4.196352 5.588992-7.343104 8.392704-9.44128l-94.415872 0C742.904832 333.518848 751.6416 348.551168 767.737856 380.022784z" fill="#272636" /></svg>