<svg t="1742477117692" class="icon" viewBox="0 0 1024 1024" version="1.1" xmlns="http://www.w3.org/2000/svg" p-id="10509" width="200" height="200"><path d="M955.008 529.344a141.12 141.12 0 0 0-48.768-73.28c-28.032-22.528-61.696-32.64-92.096-27.776a80.256 80.256 0 0 0-53.568 33.536L594.496 705.92a85.376 85.376 0 0 0-14.272 38.144c-1.6 13.248-0.512 27.328 3.136 41.344 7.424 28.032 24.96 54.144 48.64 73.28 28.416 22.464 61.952 32.64 92.224 27.648 22.4-3.776 41.408-15.68 53.632-33.536l166.272-244.032c7.616-11.328 12.096-24.064 14.016-38.208 1.6-13.184 0.64-27.2-3.136-41.216m-33.472 61.632l-165.952 244.032a51.84 51.84 0 0 1-35.456 21.696c-22.784 3.712-49.536-4.544-71.424-22.208a109.952 109.952 0 0 1-38.656-57.344c-5.248-20.224-3.072-39.232 6.656-53.312l166.208-244.032a51.072 51.072 0 0 1 35.456-21.568c22.912-3.776 49.472 4.48 71.488 22.08 18.944 15.232 32.768 35.648 38.464 57.28 5.376 20.224 2.944 39.232-6.784 53.376" fill="#2c2c2c" p-id="10510"></path><path d="M626.048 734.208c-15.232 22.272-1.6 61.248 30.72 86.976 32 25.664 70.336 28.288 85.632 5.952l81.728-119.936-116.288-93.056-81.792 120.064m-30.336-5.504" fill="#2c2c2c" p-id="10511"></path><path d="M648.896 482.56H512.384V336.576c0-10.624-7.936-19.136-17.728-19.136-9.984 0-17.856 8.576-17.856 19.136V482.56H340.352c-9.92 0-17.856 8.576-17.856 19.136 0 10.56 7.936 19.136 17.856 19.136h136.384v146.176c0 10.368 7.936 19.008 17.856 19.008 9.792 0 17.728-8.64 17.728-19.008V520.832h136.512c9.728 0 17.728-8.576 17.728-19.136 0.064-10.56-7.936-19.136-17.664-19.136zM858.112 170.752h-204.608v-36.608c0-38.72-29.504-70.272-65.6-70.272H401.216c-36.16 0-65.536 31.552-65.536 70.272v36.608H210.432c-9.856 0-17.856 8.64-17.856 19.2 0 10.56 8 19.136 17.856 19.136h647.68c16.384 0 29.76 14.272 29.76 31.936v113.856l35.904-52.736v-61.12c0-38.656-29.504-70.272-65.664-70.272z m-486.72-36.608c0-17.6 13.44-31.936 29.76-31.936h186.688c16.384 0 29.888 14.336 29.888 31.936v36.608H371.392v-36.608z" fill="#2c2c2c" p-id="10512"></path><path d="M102.528 736.384V238.72c0-12.352 6.784-23.744 17.28-28.992a19.648 19.648 0 0 0 8.64-25.408 17.408 17.408 0 0 0-23.808-9.28c-23.04 11.52-37.888 36.48-37.888 63.68v497.536c0 38.848 29.376 70.272 65.536 70.272h341.632l38.08-40.32-379.648 2.048c-16.448 0-29.824-14.272-29.824-31.872z" fill="#2c2c2c" p-id="10513"></path></svg>