<svg t="1741836843615" class="icon" viewBox="0 0 1024 1024" version="1.1" xmlns="http://www.w3.org/2000/svg" p-id="2679" width="200" height="200"><path d="M512 3.072A509.470118 509.470118 0 0 0 2.590118 512.481882c0 281.118118 228.291765 509.470118 509.409882 509.470118A509.470118 509.470118 0 0 0 512 3.072z m0 954.849882A445.982118 445.982118 0 1 1 957.921882 512 445.620706 445.620706 0 0 1 512 957.921882z" fill="#2c2c2c" p-id="2680"></path><path d="M743.905882 588.318118H512V280.094118a26.443294 26.443294 0 0 0-26.624-26.684236h-7.649882a26.443294 26.443294 0 0 0-26.624 26.624v342.076236c0 14.817882 11.745882 26.624 26.624 26.624h266.24a26.443294 26.443294 0 0 0 26.563764-26.624V614.4a26.322824 26.322824 0 0 0-26.563764-26.081882z" fill="#2c2c2c" p-id="2681"></path></svg>