<svg t="1742477158766" class="icon" viewBox="0 0 1024 1024" version="1.1" xmlns="http://www.w3.org/2000/svg" p-id="11592" width="200" height="200"><path d="M737.28 378.88c30.72 0 61.44 5.12 92.16 10.24V76.8c-5.12-40.96-35.84-76.8-76.8-76.8H76.8C35.84 0 0 35.84 0 76.8v788.48c0 40.96 35.84 76.8 76.8 76.8h368.64c-40.96-61.44-66.56-133.12-66.56-204.8 0-199.68 158.72-358.4 358.4-358.4zM190.976 153.6h446.976c20.992 0 37.376 16.896 37.376 37.376 0 20.992-16.896 37.376-37.376 37.376H190.976c-20.992 0-37.376-16.896-37.376-37.376s16.896-37.376 37.376-37.376z m73.728 523.776H190.976c-20.992 0-37.376-16.896-37.376-37.376s16.896-37.376 37.376-37.376h73.216c20.992 0 37.376 16.896 37.376 37.376s-16.384 37.376-36.864 37.376z m71.68-223.232H190.976c-20.992 0-37.376-16.896-37.376-37.376 0-20.992 16.896-37.376 37.376-37.376h144.896c20.992 0 37.376 16.896 37.376 37.376 0.512 20.48-16.384 37.376-36.864 37.376zM666.112 814.08c-12.288 0-22.016 9.728-22.016 22.016s9.728 22.016 22.016 22.016 22.016-9.728 22.016-22.016-9.728-22.016-22.016-22.016zM788.48 670.72v77.312h81.408L815.104 670.72zM818.688 814.08c-12.288 0-22.016 9.728-22.016 22.016s9.728 22.016 22.016 22.016 22.016-9.728 22.016-22.016-9.728-22.016-22.016-22.016z" p-id="11593" fill="#2c2c2c"></path><path d="M742.4 460.8c-153.6 0-281.6 128-281.6 281.6s128 281.6 281.6 281.6 281.6-128 281.6-281.6-128-281.6-281.6-281.6z m-145.92 211.456H716.8c5.632 0 11.776 4.608 11.776 11.776 0 5.632-4.608 11.776-11.776 11.776h-119.296c-6.144 0-11.776-5.632-11.776-12.8 0.512-5.632 5.632-10.752 10.752-10.752z m-25.6 72.192c0-5.632 5.12-10.752 10.24-10.752H701.44c5.632 0 11.776 4.608 11.776 11.776 0 5.632-4.608 11.776-11.776 11.776h-119.296c-6.144 0-11.264-6.144-11.264-12.8z m327.68 90.624c0 5.632-4.608 11.776-11.776 11.776h-23.552c-5.632 19.456-24.064 33.792-44.544 33.792-20.48 0-38.912-13.824-44.544-33.792h-63.488c-5.632 19.456-24.064 33.792-44.544 33.792-20.48 0-38.912-13.824-44.544-33.792h-23.552c-5.632 0-11.776-4.608-11.776-11.776 0-5.632 4.608-11.776 11.776-11.776h22.528c5.632-19.456 24.064-33.792 44.544-33.792 20.48 0 38.912 13.824 44.544 33.792H773.12c5.632-19.456 24.064-33.792 44.544-33.792 20.48 0 38.912 13.824 44.544 33.792h12.288v-52.224h-98.304c-5.632 0-11.776-4.608-11.776-11.776v-131.584h-123.904c-7.168 0-11.776-6.144-11.776-11.776s4.608-11.776 11.776-11.776h136.192c5.632 0 11.776 4.608 11.776 11.776v31.232h32.256c2.048 0 5.632 0 8.704 3.072l68.096 96.256v1.024l-2.048 1.536 2.048-1.024c0.512 1.024 1.024 2.048 1.024 3.072v83.968z" p-id="11594" fill="#2c2c2c"></path></svg>