<svg t="1751595929159" class="icon" viewBox="0 0 1024 1024" version="1.1" xmlns="http://www.w3.org/2000/svg" p-id="5246" width="200" height="200"><path d="M508.928 0a509.1328 509.1328 0 0 1 508.928 508.928 509.1328 509.1328 0 0 1-508.928 508.928A509.1328 509.1328 0 0 1 0 508.928 509.1328 509.1328 0 0 1 508.928 0z m326.587733 529.476267c-72.704-20.206933-133.256533-56.5248-161.518933-70.656-36.386133-16.1792-56.5248-4.096-139.264 16.1792-82.807467 18.158933-119.1936 20.138667-119.1936 20.138666-12.0832 20.206933 4.096 54.545067 30.3104 62.600534 28.2624 8.123733 129.2288-2.048 155.4432-4.027734 12.151467-2.048 14.1312 14.1312-2.048 30.3104-16.110933 18.158933-56.5248 30.242133-88.746667 40.3456-44.4416 14.1312-107.042133-6.075733-107.042133-6.075733s-88.814933-50.449067-145.408-62.532267c-56.5248-14.1312-52.497067 36.317867-52.497067 36.317867s107.042133 72.704 139.332267 90.794667c34.338133 18.2272 84.7872 66.696533 129.2288 62.6688 44.373333-4.096 207.940267-46.421333 242.2784-42.3936 16.110933 2.048 40.3456 8.055467 62.600533 14.1312h2.048c1.979733 2.048 3.959467 2.048 6.007467 2.048 8.055467 0 12.0832-4.096 16.1792-10.171734 2.048-2.048 2.048-4.027733 2.048-4.027733 18.090667-36.317867 34.269867-109.021867 42.325333-145.408 8.123733-14.062933 0-28.194133-12.0832-30.242133zM296.413867 402.295467h272.5888a40.482133 40.482133 0 0 0 40.3456-40.413867 40.482133 40.482133 0 0 0-40.3456-40.3456H296.413867a40.482133 40.482133 0 0 0-40.3456 40.3456c0 22.254933 18.158933 40.413867 40.3456 40.413867z" fill="#2c2c2c" p-id="5247"></path></svg>