<svg t="1723091665772" class="icon" viewBox="0 0 1024 1024" version="1.1" xmlns="http://www.w3.org/2000/svg" p-id="3253" width="200" height="200"><path d="M552.437095 1012.243665c-245.440296 0-445.119619-205.070935-445.119619-457.137858 0-252.066922 199.679323-457.137858 445.119619-457.137858 245.438039 0 445.117361 205.070935 445.117361 457.137858C997.554456 807.17273 797.875133 1012.243665 552.437095 1012.243665zM552.437095 116.030304c-235.481166 0-427.057265 196.967712-427.057265 439.075504 0 242.105534 191.578357 439.075504 427.057265 439.075504 235.478908 0 427.055007-196.967712 427.055007-439.075504C979.492102 313.000273 787.916003 116.030304 552.437095 116.030304z" p-id="3254" fill="#1afa29"></path><path d="M552.437095 970.78379c-223.126516 0-404.650915-186.471226-404.650915-415.675724S329.310579 139.427826 552.437095 139.427826c223.124258 0 404.650915 186.473484 404.650915 415.677982S775.561353 970.78379 552.437095 970.78379zM552.437095 148.46126c-218.145822 0-395.619738 182.420743-395.619738 406.646805 0 224.226062 177.473916 406.644547 395.619738 406.644547 218.143564 0 395.619738-182.420743 395.619738-406.644547C948.054575 330.882004 770.580659 148.46126 552.437095 148.46126z" p-id="3255" fill="#1afa29"></path><path d="M513.837845 477.767324c2.348106 0 4.646541 0.688627 6.899819 2.054593 2.246505 1.370481 3.375402 3.330247 3.375402 5.870265 0 4.89264-3.718587 11.447017-11.153504 19.665388-3.133818 3.133818-6.850148 9.444353-11.153504 18.931605-4.305614 9.494025-6.455034 15.605874-6.455034 18.344578 0 2.74322 0.485426 5.093584 1.465308 7.046576 0.977625 1.957508 1.467566 3.768259 1.467566 5.427737 0 1.663994-1.027296 3.524417-3.081889 5.57901-2.054593 2.052335-5.427737 3.079631-10.123949 3.079631s-10.521321-0.535097-17.464038-1.614323c-6.947233-1.07471-16.391586-1.614323-28.324029-1.614323-11.936958 0-19.078361 0.099343-21.426467 0.293513-2.348106 0.198686-4.158857 1.128897-5.429995 2.786118-1.273396 1.666252-1.907836 3.964687-1.907836 6.899819l0.293513 32.579971c0 26.416193-0.539613 41.046699-1.614323 43.882489-1.079226 2.833532-3.477003 5.181638-7.191075 7.044318-3.718587 1.855907-6.852406 2.786118-9.392424 2.786118-2.546792 0-4.210786-0.833126-4.989725-2.492605-0.785712-1.663994-1.176311-6.558892-1.176311-14.675663 0-8.119028 0.293513-19.710544 0.882798-34.78132l1.465308-36.10213c0-4.301098-2.348106-6.455034-7.044318-6.455034-6.65372 0-20.1034 1.860422-40.358072 5.576752-20.252414 3.718587-38.206394 9.882365-53.857424 18.491335-1.76108 0.979883-3.330247 1.465308-4.696212 1.465308-2.935133 0-4.402699-1.76108-4.402699-5.283239s1.417895-7.778101 4.255942-12.767826c2.833532-4.989725 6.355691-9.049239 10.566477-12.1808 4.206271-3.129303 7.28816-8.1687 9.245667-15.115932 1.952992-6.942717 2.935133-12.862654 2.935133-17.757552 0-9.584337-3.081889-15.748115-9.245667-18.491335-6.163778-2.736447-10.41972-5.52708-12.767826-8.365128-2.348106-2.833532-3.522159-5.475151-3.522159-7.924858 0-2.445191 0.733783-4.007585 2.201349-4.696212 1.467566-0.684112 5.870265-1.512722 13.208096-2.494863 7.337831-0.977625 13.941879-1.952992 19.812144-2.935133 21.523552-4.696212 43.631874-7.823257 66.333995-9.392424 5.08681-0.390598 8.315456-2.641619 9.685937-6.750805 1.952992-6.845632 4.890382-10.272964 8.805398-10.272964 4.301098 0 7.924858 3.621502 10.85999 10.85999 0.781197 2.156194 1.910094 3.522159 3.375402 4.109186 1.467566 0.587027 4.450112 0.88054 8.952154 0.88054 23.282374 0 41.283768 1.86268 54.006438 5.576752 12.718155 3.718587 20.839441 5.576752 24.3616 5.576752 3.524417 0 6.064435-0.44027 7.631345-1.32081C510.706284 478.205336 512.270935 477.767324 513.837845 477.767324zM327.750443 544.686087c0.589284 0 1.176311-0.097085 1.76108-0.293513 15.851973-3.325731 33.067654-5.770922 51.658332-7.337831 1.365966 0 3.228646-0.632182 5.576752-1.907836 2.348106-1.26888 3.716329-3.375402 4.109186-6.310535 0.390598-2.93739 0.587027-11.153504 0.587027-24.655113 0-3.325731-0.395114-5.624165-1.174053-6.897561-0.785712-1.26888-2.546792-1.907836-5.283239-1.907836-2.74322 0-8.365128 0.638956-16.87927 1.907836-8.511884 1.273396-16.434484 2.691291-23.772316 4.255942-7.337831 1.569167-11.74053 2.788376-13.210354 3.668916-1.465308 0.88054-2.887719 2.156194-4.255942 3.815672-1.370481 1.666252-2.251021 3.133818-2.641619 4.402699-0.395114 1.275654-0.587027 4.0121-0.587027 8.218371 0 4.210786-0.395114 9.735609-1.176311 16.583499C322.467205 542.536667 324.230542 544.686087 327.750443 544.686087zM468.639062 537.348256c3.127045 0 5.283239-1.027296 6.457292-3.081889 1.174053-2.054593 3.325731-6.552119 6.455034-13.499352 3.129303-6.942717 4.696212-12.079199 4.696212-15.409446 0-3.325731-1.273396-5.768664-3.813414-7.337831-2.546792-1.562394-9.685937-2.788376-21.426467-3.668916-11.74053-0.88054-21.575482-1.32081-29.498082-1.32081s-12.722671 0.049671-14.382149 0.146757c-1.663994 0.099343-3.036733 0.688627-4.106928 1.76108-1.079226 1.079226-1.76108 2.788376-2.054593 5.136482s-0.44027 11.153504-0.44027 26.416193c0 3.915015 0.781197 6.360206 2.348106 7.337831 1.562394 0.98214 3.567315 1.370481 6.017022 1.176311 2.445191-0.19417 6.994647-0.295771 13.648366-0.295771 6.649204 0 13.402267 0.395114 20.252414 1.174053L468.639062 537.348256z" p-id="3256" fill="#1afa29"></path><path d="M681.142656 486.279208c0 2.74322-3.036733 6.800476-9.098911 12.1808-6.068951 5.384839-11.349932 8.071614-15.849716 8.071614-9.001826 0-13.50161 2.201349-13.50161 6.604048 0 4.402699 0.338669 7.290418 1.027296 8.658641 0.684112 1.370481 1.907836 2.641619 3.668916 3.815672 9.979451 6.65372 17.023769 12.722671 21.132954 18.197822 4.106928 5.479667 6.16152 9.001826 6.16152 10.568735s-2.009437 3.034475-6.017022 4.400441c-4.0121 1.370481-7.240746 2.054593-9.685937 2.054593-2.447449 0-7.681016-2.83579-15.702959-8.511884-0.587027-0.392856-1.273396-0.589284-2.054593-0.589284-0.783455 0-1.465308 0.44027-2.052335 1.32081-0.589284 0.882798-1.32081 4.797813-2.203607 11.74053-0.88054 6.947233-1.370481 13.499352-1.465308 19.665388-0.101601 6.163778-0.146757 13.847052-0.146757 23.04079 0 9.198254-0.833126 17.220197-2.492605 24.068087-1.663994 6.850148-3.280575 10.272964-4.845226 10.272964-1.566909 0-3.228646-1.711408-4.989725-5.136482-1.76108-3.420558-2.641619-9.390166-2.641619-17.904308s0.485426-17.317282 1.467566-26.416193c0.977625-9.096653 1.562394-16.825083 1.758822-23.187547 0.19417-6.355691 0.293513-9.636266 0.293513-9.832694 0-2.738704-0.438012-4.109186-1.32081-4.109186-0.88054 0-2.104264 0.785712-3.668916 2.350364-12.133386 12.135644-20.205001 19.617974-24.214843 22.453764-4.0121 2.838047-7.631345 4.255942-10.85999 4.255942-3.230904 0-6.412136-2.054593-9.541438-6.163778-3.133818-4.109186-5.576752-9.096653-7.337831-14.969176s-2.641619-9.342753-2.641619-10.41972c0-1.07471 0.146757-2.102006 0.44027-3.079631s0.778939-1.467566 1.465308-1.467566c0.684112 0 1.417895 0.785712 2.203607 2.345848 1.952992 3.720845 4.549455 5.57901 7.775843 5.57901 3.230904 0 7.091732-1.415637 11.596031-4.255942 4.497526-2.83579 10.611633-8.021943 18.344578-15.55846 7.726172-7.529744 12.472055-12.718155 14.235393-15.556202 1.76108-2.833532 2.641619-5.576752 2.641619-8.218371 0-2.641619-1.079226-3.962429-3.228646-3.962429-2.156194 0-5.429995 0.395114-9.832694 1.174053-4.402699 0.783455-8.952154 2.156194-13.648366 4.109186-4.696212 1.959765-9.098911 2.935133-13.208096 2.935133-8.417057 0-12.62107-5.475151-12.62107-16.436742 0-5.673837 0.438012-10.272964 1.32081-13.795123 0.88054-3.522159 2.786118-5.283239 5.721251-5.283239 0.977625 0 2.738704 0.293513 5.285496 0.88054 2.540019 0.587027 5.032623 0.88054 7.48233 0.88054 2.445191 0 6.604048-1.26888 12.474313-3.815672 5.870265-2.540019 11.835357-4.206271 17.904308-4.989725 3.524417-0.390598 5.870265-1.858165 7.044318-4.402699 3.522159-9.193738 6.208934-13.795123 8.071614-13.795123 1.855907 0 3.127045 0.733783 3.813414 2.201349 0.684112 1.467566 1.32081 5.039397 1.910094 10.713234 0.191913 2.935133 2.052335 4.696212 5.576752 5.283239 6.258606 0.783455 12.959739 2.253279 20.105658 4.402699 7.139145 2.156194 11.248331 3.668916 12.327557 4.549455C680.598527 484.075601 681.142656 485.105155 681.142656 486.279208zM714.896679 571.10228c0 2.935133-0.733783 5.678353-2.203607 8.218371-1.465308 2.546792-5.971866 7.681016-13.499352 15.411703-7.536517 7.730687-13.309697 12.817498-17.317282 15.262689-4.0121 2.447449-7.633602 3.668916-10.862248 3.668916s-5.919936-1.221467-8.071614-3.668916c-2.153936-2.445191-3.330247-5.96735-3.522159-10.568735-0.198686-4.594611-0.587027-7.924858-1.176311-9.979451-0.587027-2.052335-1.614323-3.860828-3.079631-5.429995-1.467566-1.562394-2.203607-2.641619-2.203607-3.228646s0.243842-0.882798 0.733783-0.882798c0.487684 0 1.219209 0.295771 2.201349 0.882798 3.524417 1.957508 7.337831 2.93739 11.447017 2.93739 3.325731 0 8.952154-2.494863 16.87927-7.486846 7.924858-4.987467 12.472055-8.166442 13.648366-9.539181 3.127045-3.9105 6.062178-5.870265 8.80314-5.870265 2.738704 0 4.793297 0.930211 6.163778 2.786118C714.208052 565.480372 714.896679 567.975235 714.896679 571.10228zM826.429457 511.521348c0 1.174053-1.42241 4.061772-4.255942 8.658641-2.840305 4.599127-6.65372 9.735609-11.447017 15.409446-4.795555 5.676095-8.121286 8.999568-9.979451 9.979451-1.860422 0.98214-4.549455 1.467566-8.071614 1.467566-6.066693 0-11.593773-0.979883-16.583499-2.93739-4.989725-1.952992-9.539181-3.228646-13.648366-3.813414s-7.145919-0.882798-9.098911-0.882798c-1.957508 0-3.375402 0.882798-4.255942 2.641619-0.88054 1.76108-1.614323 8.173215-2.201349 19.227376-0.589284 11.054161-0.882798 20.545928-0.882798 28.468528s0.243842 14.48375 0.733783 19.667646c0.487684 5.186153 0.733783 10.123949 0.733783 14.820161s-1.223724 10.272964-3.668916 16.730255c-2.449707 6.455034-4.989725 9.685937-7.631345 9.685937s-4.696212-1.663994-6.163778-4.989725c-1.465308-3.325731-2.201349-11.345416-2.201349-24.068087 0-12.718155 0.632182-24.80187 1.907836-36.248887 1.26888-11.447017 1.907836-21.180368 1.907836-29.206826 0-8.021943-0.2461-12.718155-0.731525-14.088636-0.492199-1.365966-1.275654-2.054593-2.348106-2.054593-1.079226 0-4.210786 0.295771-9.392424 0.882798-5.188411 0.587027-11.349932 1.614323-18.491335 3.081889-7.143661 1.465308-13.016184 2.201349-17.610795 2.201349-4.599127 0-7.534259-1.07471-8.805398-3.228646-1.273396-2.151678-1.907836-5.770922-1.907836-10.862248 0-5.084553 0.882798-8.952154 2.641619-11.593773 1.76108-2.641619 3.524417-3.962429 5.283239-3.962429 1.76108 0 3.230904 0.392856 4.402699 1.174053 1.176311 0.783455 2.494863 1.174053 3.962429 1.174053 1.467566 0 3.766001-0.781197 6.899819-2.348106 3.127045-1.564651 8.80314-2.885461 17.023769-3.962429 8.218371-1.072452 18.536491-1.614323 30.965648-1.614323 12.424642 0 24.018415 1.275654 34.78132 3.815672 1.562394 0.395114 4.693954 0.587027 9.390166 0.587027s10.611633-0.390598 17.757552-1.174053c7.141403-0.781197 11.887287-1.614323 14.235393-2.494863 2.348106-0.88054 4.059514-1.32081 5.136482-1.32081C825.889844 510.347295 826.429457 510.740151 826.429457 511.521348zM751.290065 462.798148c16.630912 0 29.105226 1.810751 37.42294 5.429995 8.315456 3.62376 12.474313 9.832694 12.474313 18.638091 0 4.89264-4.210786 7.337831-12.62107 7.337831l-30.234123-0.587027c-22.307007 0-37.962552 1.273396-46.96212 3.815672-3.131561 0.98214-5.870265 1.467566-8.218371 1.467566-5.283239 0-9.098911-2.58969-11.447017-7.778101-2.348106-5.181638-3.522159-9.832694-3.522159-13.941879 0-6.649204 2.641619-9.979451 7.924858-9.979451 1.562394 0 3.032218 0.293513 4.402699 0.88054 1.365966 0.587027 2.786118 0.88054 4.255942 0.88054s3.668916-0.485426 6.604048-1.467566C720.956599 464.365057 734.268554 462.798148 751.290065 462.798148zM769.490144 564.057962c0.977625 0 2.445191 0.984398 4.402699 2.93739 1.952992 1.957508 8.703797 6.412136 20.252414 13.352595 11.541844 6.949491 19.958901 11.593773 25.24214 13.944137 1.176311 0.587027 1.76108 1.465308 1.76108 2.641619 0 2.74322-3.57183 6.999162-10.713234 12.765569-7.143661 5.775438-13.257768 8.660899-18.344578 8.660899-7.044318 0-13.456454-5.380324-19.225118-16.143229-5.775438-10.760647-8.658641-21.426467-8.658641-31.992944C764.206906 566.112555 765.965727 564.057962 769.490144 564.057962z" p-id="3257" fill="#1afa29"></path></svg>