<svg t="1710310972867" class="icon" viewBox="0 0 1024 1024" version="1.1" xmlns="http://www.w3.org/2000/svg" p-id="1822" width="200" height="200"><path d="M958.6 432.1c-31.8-187.8-178.9-335-366.8-366.8-39-6.5-74.5 23.5-74.5 63v314.3c0 35.3 28.6 64 64 64h314.3c39.6-0.1 69.6-35.6 63-74.5z" fill="#2c2c2c" p-id="1823"></path><path d="M793.6 560H496c-17.7 0-32-14.3-32-32V231.3c0.6-40-35.4-70.8-74.8-64C191.6 205.4 53.1 384.5 66 585.4c12.9 200.8 173.1 360.8 374 373.3s379.7-126.2 417.5-323.9c6.8-39.5-23.9-75.4-63.9-74.8z" fill="#2c2c2c" p-id="1824"></path></svg>